<svg width="14" height="15" viewBox="0 0 14 15" fill="none" xmlns="http://www.w3.org/2000/svg">
<path d="M6.41797 10.3492H7.58464V6.84924H6.41797V10.3492ZM7.0013 1.59924C3.7813 1.59924 1.16797 4.21258 1.16797 7.43258C1.16797 10.6526 3.7813 13.2659 7.0013 13.2659C10.2213 13.2659 12.8346 10.6526 12.8346 7.43258C12.8346 4.21258 10.2213 1.59924 7.0013 1.59924ZM7.0013 12.0992C4.4288 12.0992 2.33464 10.0051 2.33464 7.43258C2.33464 4.86008 4.4288 2.76591 7.0013 2.76591C9.5738 2.76591 11.668 4.86008 11.668 7.43258C11.668 10.0051 9.5738 12.0992 7.0013 12.0992ZM6.41797 5.68258H7.58464V4.51591H6.41797V5.68258Z" fill="#D90368"/>
<path d="M6.41797 4.51599H7.58464V5.68266H6.41797V4.51599ZM6.41797 6.84932H7.58464V10.3493H6.41797V6.84932Z" fill="#296EB4"/>
<path d="M7.0013 1.59924C3.7813 1.59924 1.16797 4.21258 1.16797 7.43258C1.16797 10.6526 3.7813 13.2659 7.0013 13.2659C10.2213 13.2659 12.8346 10.6526 12.8346 7.43258C12.8346 4.21258 10.2213 1.59924 7.0013 1.59924ZM7.0013 12.0992C4.4288 12.0992 2.33464 10.0051 2.33464 7.43258C2.33464 4.86008 4.4288 2.76591 7.0013 2.76591C9.5738 2.76591 11.668 4.86008 11.668 7.43258C11.668 10.0051 9.5738 12.0992 7.0013 12.0992Z" fill="#296EB4"/>
</svg>
