<svg width="32" height="28" viewBox="0 0 32 28"  xmlns="http://www.w3.org/2000/svg">
<path d="M23.3109 17.3571C23.8775 16.4395 25.2119 16.4395 25.7784 17.3571L30.9843 25.7882C31.5808 26.7542 30.8859 28 29.7505 28H19.3388C18.2035 28 17.5086 26.7542 18.1051 25.7882L23.3109 17.3571Z" />
<path d="M14.8518 1.00592C15.3952 0.0806035 16.7205 0.045581 17.312 0.940907L21.9178 7.91254C22.2227 8.37413 22.2384 8.96901 21.9583 9.44605L11.4831 27.2842C11.2227 27.7277 10.7469 28 10.2327 28H1.53301C0.412042 28 -0.284971 26.7824 0.282665 25.8158L14.8518 1.00592Z" />
</svg>
