<svg width="56" height="56" viewBox="0 0 56 56" fill="none" xmlns="http://www.w3.org/2000/svg">
<path d="M30.303 30.5697C31.8264 29.0463 31.8264 26.5765 30.303 25.0531C28.7796 23.5297 26.3098 23.5297 24.7864 25.0531C23.263 26.5765 23.263 29.0463 24.7864 30.5697C26.3098 32.0931 28.7796 32.0931 30.303 30.5697Z" fill="#F3523F"/>
<path d="M22.2651 23.0318C22.5412 23.0318 22.7651 22.8079 22.7651 22.5318L22.7651 18.0318C22.7651 17.7556 22.5412 17.5318 22.2651 17.5318C21.989 17.5318 21.7651 17.7556 21.7651 18.0318L21.7651 22.0318L17.7651 22.0318C17.489 22.0318 17.2651 22.2556 17.2651 22.5318C17.2651 22.8079 17.489 23.0318 17.7651 23.0318L22.2651 23.0318ZM7.95797 8.93174L21.9115 22.8853L22.6187 22.1782L8.66508 8.22463L7.95797 8.93174Z" fill="black"/>
<path d="M33.2015 32.9683C32.9253 32.9683 32.7015 33.1922 32.7015 33.4683L32.7015 37.9683C32.7015 38.2444 32.9253 38.4683 33.2015 38.4683C33.4776 38.4683 33.7015 38.2444 33.7015 37.9683L33.7015 33.9683L37.7015 33.9683C37.9776 33.9683 38.2015 33.7444 38.2015 33.4683C38.2015 33.1922 37.9776 32.9683 37.7015 32.9683L33.2015 32.9683ZM47.5086 47.0683L33.555 33.1147L32.8479 33.8219L46.8015 47.7754L47.5086 47.0683Z" fill="black"/>
<path d="M22.7651 33.4683C22.7651 33.1922 22.5412 32.9683 22.2651 32.9683L17.7651 32.9683C17.489 32.9683 17.2651 33.1922 17.2651 33.4683C17.2651 33.7444 17.489 33.9683 17.7651 33.9683L21.7651 33.9683L21.7651 37.9683C21.7651 38.2444 21.989 38.4683 22.2651 38.4683C22.5412 38.4683 22.7651 38.2444 22.7651 37.9683L22.7651 33.4683ZM8.66508 47.7754L22.6187 33.8219L21.9115 33.1147L7.95797 47.0683L8.66508 47.7754Z" fill="black"/>
<path d="M32.7017 22.5316C32.7017 22.8078 32.9256 23.0316 33.2017 23.0316L37.7017 23.0316C37.9778 23.0316 38.2017 22.8078 38.2017 22.5316C38.2017 22.2555 37.9778 22.0316 37.7017 22.0316L33.7017 22.0316L33.7017 18.0316C33.7017 17.7555 33.4778 17.5316 33.2017 17.5316C32.9256 17.5316 32.7017 17.7555 32.7017 18.0316L32.7017 22.5316ZM46.8017 8.22451L32.8481 22.1781L33.5553 22.8852L47.5088 8.93162L46.8017 8.22451Z" fill="black"/>
</svg>
