<svg width="26" height="21" viewBox="0 0 26 21" fill="none" xmlns="http://www.w3.org/2000/svg">
<path d="M21.665 2.55055C20.0713 1.81931 18.3624 1.28056 16.5755 0.971998C16.543 0.966042 16.5105 0.980925 16.4937 1.01069C16.2739 1.4016 16.0305 1.91158 15.86 2.31242C13.9381 2.0247 12.0261 2.0247 10.1437 2.31242C9.97317 1.90267 9.72087 1.4016 9.5001 1.01069C9.48334 0.981918 9.45083 0.967035 9.41829 0.971998C7.63244 1.27958 5.92346 1.81832 4.32881 2.55055C4.315 2.55651 4.30317 2.56644 4.29531 2.57933C1.05375 7.42215 0.165753 12.1459 0.601376 16.8112C0.603347 16.834 0.61616 16.8558 0.6339 16.8697C2.77259 18.4403 4.84428 19.3938 6.87749 20.0258C6.91003 20.0357 6.94451 20.0238 6.96522 19.997C7.44618 19.3402 7.87491 18.6477 8.2425 17.9194C8.26419 17.8768 8.24349 17.8262 8.19915 17.8093C7.51911 17.5513 6.87158 17.2368 6.24869 16.8796C6.19943 16.8509 6.19548 16.7804 6.24081 16.7466C6.37188 16.6484 6.503 16.5462 6.62816 16.443C6.6508 16.4242 6.68235 16.4202 6.70898 16.4321C10.801 18.3004 15.2312 18.3004 19.275 16.4321C19.3016 16.4192 19.3332 16.4232 19.3568 16.4421C19.482 16.5452 19.6131 16.6484 19.7451 16.7466C19.7905 16.7804 19.7875 16.8509 19.7382 16.8796C19.1153 17.2437 18.4678 17.5513 17.7868 17.8083C17.7424 17.8252 17.7227 17.8768 17.7444 17.9194C18.1199 18.6467 18.5486 19.3392 19.0207 19.996C19.0404 20.0238 19.0759 20.0357 19.1084 20.0258C21.1515 19.3938 23.2232 18.4403 25.3619 16.8697C25.3806 16.8558 25.3925 16.835 25.3944 16.8122C25.9158 11.4186 24.5212 6.73359 21.6975 2.58031C21.6906 2.56644 21.6788 2.55651 21.665 2.55055ZM8.85359 13.9705C7.62159 13.9705 6.60646 12.8395 6.60646 11.4504C6.60646 10.0613 7.6019 8.93028 8.85359 8.93028C10.1151 8.93028 11.1204 10.0713 11.1007 11.4504C11.1007 12.8395 10.1052 13.9705 8.85359 13.9705ZM17.1619 13.9705C15.93 13.9705 14.9148 12.8395 14.9148 11.4504C14.9148 10.0613 15.9103 8.93028 17.1619 8.93028C18.4235 8.93028 19.4287 10.0713 19.4091 11.4504C19.4091 12.8395 18.4235 13.9705 17.1619 13.9705Z" fill="#23272A"/>
</svg>
