<svg width="19" height="27" viewBox="0 0 19 27" fill="none" xmlns="http://www.w3.org/2000/svg">
    <path d="M3.14062 6.95711L6.84773 3.25H18.1406V26.25H3.14062V6.95711Z" stroke="black"/>
    <path d="M16.707 0.75H4.70703L0.707031 4.75V24.75H16.707V0.75Z" fill="black"/>
    <path d="M8.33703 9.25C9.05703 9.25 9.68703 9.39333 10.227 9.68C10.7737 9.96667 11.1937 10.3767 11.487 10.91C11.787 11.4367 11.937 12.05 11.937 12.75C11.937 13.45 11.787 14.0667 11.487 14.6C11.1937 15.1267 10.7737 15.5333 10.227 15.82C9.68703 16.1067 9.05703 16.25 8.33703 16.25H5.46703V9.25H8.33703ZM8.33703 14.82C8.9237 14.82 9.39703 14.6333 9.75703 14.26C10.117 13.8867 10.297 13.3833 10.297 12.75C10.297 12.33 10.2137 11.9667 10.047 11.66C9.88703 11.3467 9.65703 11.1067 9.35703 10.94C9.0637 10.7667 8.7237 10.68 8.33703 10.68H7.10703V14.82H8.33703Z" fill="#F8F8F8"/>
</svg>
