<svg width="48" height="36" viewBox="0 0 48 36" fill="none" xmlns="http://www.w3.org/2000/svg">
<path d="M18.0011 21.6861C15.9406 21.6861 14.265 20.0214 14.265 17.9746C14.265 15.9278 15.9406 14.263 18.0011 14.263H40.3878V9.89648H18.0011C13.5336 9.89648 9.89844 13.5207 9.89844 17.9746C9.89844 22.4285 13.5336 26.0527 18.0011 26.0527H48.0019V21.6861H18.0011V21.6861Z" fill="#808080"/>
<path d="M17.9683 0C8.05899 0 0 8.0317 0 17.9028C0 27.7739 8.05899 35.8056 17.9683 35.8056H47.9282V31.4391H17.9683C10.4688 31.4391 4.36654 25.3669 4.36654 17.9028C4.36654 10.4388 10.4688 4.36654 17.9683 4.36654H47.9282V0H17.9683Z" fill="#808080"/>
<path d="M45.4067 9.89648C44.1198 9.89648 43.0781 10.9382 43.0781 12.2251C43.0781 13.512 44.1198 14.5537 45.4067 14.5537C46.6937 14.5537 47.7353 13.512 47.7353 12.2251C47.7353 10.9382 46.6937 9.89648 45.4067 9.89648V9.89648Z" fill="#808080"/>
</svg>
