<svg width="65" height="55" viewBox="0 0 65 55" fill="none" xmlns="http://www.w3.org/2000/svg">
<g opacity="0.2">
<path fill-rule="evenodd" clip-rule="evenodd" d="M24.0336 39.9094H36.5119V39.9091H64.2464V33.2018H36.5097V33.202H24.0336C21.2717 33.202 19.0255 30.6449 19.0255 27.5008C19.0255 24.3568 21.2717 21.7996 24.0336 21.7996H54.0421V15.0923H24.0336C18.0451 15.0923 13.1724 20.6594 13.1724 27.5008C13.1724 34.3423 18.0451 39.9094 24.0336 39.9094Z" fill="black"/>
<path d="M64.2458 55H24.0858C10.8027 55 0 42.6627 0 27.5C0 12.3373 10.8027 0 24.0858 0H64.2458V6.70732H24.0858C14.033 6.70732 5.85317 16.0347 5.85317 27.5C5.85317 38.9653 14.033 48.2927 24.0858 48.2927H64.2458V55Z" fill="black"/>
<path d="M61.0053 14.9766C59.2969 14.9766 57.9141 16.5612 57.9141 18.5189C57.9141 20.4766 59.2969 22.0612 61.0053 22.0612C62.7137 22.0612 64.0965 20.4766 64.0965 18.5189C64.0965 16.5612 62.7137 14.9766 61.0053 14.9766Z" fill="black"/>
</g>
</svg>