<svg width="22" height="16" viewBox="0 0 22 16" fill="none" xmlns="http://www.w3.org/2000/svg">
<path fill-rule="evenodd" clip-rule="evenodd" d="M19.7795 0H1.71992C0.769416 0 0 0.769416 0 1.71992C0 2.67043 0.769416 3.43984 1.71992 3.43984H19.8022C20.7527 3.43984 21.5221 2.67043 21.5221 1.71992C21.5221 0.769416 20.7301 0 19.7796 0H19.7795ZM17.0423 6.26827H4.45953C3.50902 6.26827 2.7396 7.03769 2.7396 7.98819C2.7396 8.9387 3.50902 9.70812 4.45953 9.70812H17.065C18.0155 9.70812 18.785 8.9387 18.785 7.98819C18.785 7.03769 17.9928 6.26827 17.0423 6.26827ZM7.19392 12.56H14.3001H14.3003C15.2508 12.56 16.0428 13.3294 16.0426 14.2799C16.0426 15.2304 15.2732 15.9998 14.3227 15.9998H7.19392C6.24341 15.9998 5.474 15.2304 5.474 14.2799C5.474 13.3294 6.24341 12.56 7.19392 12.56Z" fill="black"/>
</svg>
