<svg xmlns="http://www.w3.org/2000/svg" fill="none" viewBox="4.15 3.63 17.93 26">
<rect width="16" height="24" transform="translate(6.08203 5.63477)" fill="white"/>
<path d="M6.58203 9.84187L10.2891 6.13477H21.582V29.1348H6.58203V9.84187Z" stroke="black"/>
<g filter="url(#filter0_dd_3413_9921)">
<path d="M20.1484 3.63477H8.14844L4.14844 7.63477V27.6348H20.1484V3.63477Z" fill="black"/>
<path d="M15.2084 14.9948V18.1148C14.8551 18.4948 14.4184 18.7881 13.8984 18.9948C13.3851 19.1948 12.8184 19.2948 12.1984 19.2948C11.4584 19.2948 10.8084 19.1448 10.2484 18.8448C9.6951 18.5448 9.2651 18.1181 8.95844 17.5648C8.65844 17.0114 8.50844 16.3681 8.50844 15.6348C8.50844 14.9214 8.66844 14.2881 8.98844 13.7348C9.30844 13.1748 9.7551 12.7414 10.3284 12.4348C10.9084 12.1214 11.5718 11.9648 12.3184 11.9648C12.8584 11.9648 13.3451 12.0581 13.7784 12.2448C14.2184 12.4314 14.6218 12.7148 14.9884 13.0948L13.9984 14.0748C13.7784 13.8548 13.5184 13.6848 13.2184 13.5648C12.9251 13.4448 12.6218 13.3848 12.3084 13.3848C11.6351 13.3848 11.1018 13.5881 10.7084 13.9948C10.3218 14.3948 10.1284 14.9414 10.1284 15.6348C10.1284 16.0814 10.2151 16.4748 10.3884 16.8148C10.5618 17.1548 10.8084 17.4181 11.1284 17.6048C11.4484 17.7914 11.8184 17.8848 12.2384 17.8848C12.8984 17.8848 13.4251 17.7148 13.8184 17.3748V16.3048H11.9184V14.9948H15.2084Z" fill="#F8F8F8"/>
</g>
<defs>
<filter id="filter0_dd_3413_9921" x="0.148438" y="0.634766" width="24" height="32" filterUnits="userSpaceOnUse" color-interpolation-filters="sRGB">
<feFlood flood-opacity="0" result="BackgroundImageFix"/>
<feColorMatrix in="SourceAlpha" type="matrix" values="0 0 0 0 0 0 0 0 0 0 0 0 0 0 0 0 0 0 127 0" result="hardAlpha"/>
<feMorphology radius="1" operator="dilate" in="SourceAlpha" result="effect1_dropShadow_3413_9921"/>
<feOffset dy="1"/>
<feGaussianBlur stdDeviation="1.5"/>
<feColorMatrix type="matrix" values="0 0 0 0 0 0 0 0 0 0 0 0 0 0 0 0 0 0 0.15 0"/>
<feBlend mode="normal" in2="BackgroundImageFix" result="effect1_dropShadow_3413_9921"/>
<feColorMatrix in="SourceAlpha" type="matrix" values="0 0 0 0 0 0 0 0 0 0 0 0 0 0 0 0 0 0 127 0" result="hardAlpha"/>
<feOffset dy="1"/>
<feGaussianBlur stdDeviation="1"/>
<feColorMatrix type="matrix" values="0 0 0 0 0 0 0 0 0 0 0 0 0 0 0 0 0 0 0.3 0"/>
<feBlend mode="normal" in2="effect1_dropShadow_3413_9921" result="effect2_dropShadow_3413_9921"/>
<feBlend mode="normal" in="SourceGraphic" in2="effect2_dropShadow_3413_9921" result="shape"/>
</filter>
</defs>
</svg>