<svg width="66" height="66" viewBox="0 0 66 66" fill="none" xmlns="http://www.w3.org/2000/svg">
<path d="M32.9999 51.7473C43.3539 51.7473 51.7474 43.3537 51.7474 32.9998C51.7474 22.6458 43.3539 14.2523 32.9999 14.2523C22.646 14.2523 14.2524 22.6458 14.2524 32.9998C14.2524 43.3537 22.646 51.7473 32.9999 51.7473Z" stroke="black" stroke-width="0.323232" stroke-miterlimit="10"/>
<path d="M32.9999 51.7473C43.3539 51.7473 51.7474 43.3537 51.7474 32.9998C51.7474 22.6458 43.3539 14.2523 32.9999 14.2523C22.646 14.2523 14.2524 22.6458 14.2524 32.9998C14.2524 43.3537 22.646 51.7473 32.9999 51.7473Z" stroke="black" stroke-width="0.323232" stroke-miterlimit="10"/>
<path d="M32.9999 51.7473C43.3539 51.7473 51.7474 43.3537 51.7474 32.9998C51.7474 22.6458 43.3539 14.2523 32.9999 14.2523C22.646 14.2523 14.2524 22.6458 14.2524 32.9998C14.2524 43.3537 22.646 51.7473 32.9999 51.7473Z" stroke="black" stroke-width="0.323232" stroke-miterlimit="10"/>
<path d="M32.9999 51.7473C43.3539 51.7473 51.7474 43.3537 51.7474 32.9998C51.7474 22.6458 43.3539 14.2523 32.9999 14.2523C22.646 14.2523 14.2524 22.6458 14.2524 32.9998C14.2524 43.3537 22.646 51.7473 32.9999 51.7473Z" stroke="black" stroke-width="0.323232" stroke-miterlimit="10"/>
<path d="M32.9999 51.7473C43.3539 51.7473 51.7474 43.3537 51.7474 32.9998C51.7474 22.6458 43.3539 14.2523 32.9999 14.2523C22.646 14.2523 14.2524 22.6458 14.2524 32.9998C14.2524 43.3537 22.646 51.7473 32.9999 51.7473Z" stroke="black" stroke-width="0.628507" stroke-miterlimit="10"/>
<path d="M33.0001 58.3413C46.9958 58.3413 58.3415 46.9956 58.3415 32.9999C58.3415 19.0042 46.9958 7.65851 33.0001 7.65851C19.0044 7.65851 7.65869 19.0042 7.65869 32.9999C7.65869 46.9956 19.0044 58.3413 33.0001 58.3413Z" stroke="#F3523F" stroke-width="1.25701" stroke-miterlimit="10" stroke-dasharray="4.85 4.85"/>
<path d="M33 65C50.6731 65 65 50.6731 65 33C65 15.3269 50.6731 1 33 1C15.3269 1 1 15.3269 1 33C1 50.6731 15.3269 65 33 65Z" stroke="black" stroke-width="1.25701" stroke-miterlimit="10" stroke-dasharray="3.24 3.24"/>
</svg>
