<svg width="33" height="25" viewBox="0 0 33 25" fill="none" xmlns="http://www.w3.org/2000/svg">
<path d="M12.6879 14.9802C11.3143 14.9802 10.1972 13.8704 10.1972 12.5058C10.1972 11.1413 11.3143 10.0314 12.6879 10.0314H27.6123V7.12042H12.6879C9.70956 7.12042 7.28613 9.53657 7.28613 12.5058C7.28613 15.4751 9.70956 17.8912 12.6879 17.8912H32.6884V14.9802H12.6879Z" fill="black"/>
<path d="M12.6683 0.523438C6.06211 0.523438 0.689453 5.8779 0.689453 12.4586C0.689453 19.0394 6.06211 24.3938 12.6683 24.3938H32.6416V21.4828H12.6683C7.66863 21.4828 3.60048 17.4347 3.60048 12.4586C3.60048 7.4826 7.66863 3.43446 12.6683 3.43446H32.6416V0.523438H12.6683Z" fill="black"/>
<path d="M30.9606 7.12042C30.1026 7.12042 29.4082 7.81487 29.4082 8.67282C29.4082 9.53077 30.1026 10.2252 30.9606 10.2252C31.8186 10.2252 32.513 9.53077 32.513 8.67282C32.513 7.81487 31.8186 7.12042 30.9606 7.12042Z" fill="black"/>
</svg>
