<svg width="56" height="56" viewBox="0 0 56 56" fill="none" xmlns="http://www.w3.org/2000/svg">
<path d="M27.125 0H56V28.875L27.125 0Z" fill="#F3523F"/>
<circle cx="28" cy="28" r="28" fill="#F3523F"/>
<path d="M24.2802 27.3621C21.5267 27.3621 19.2862 24.8024 19.2862 21.6567C19.2862 18.511 21.5267 15.9513 24.2802 15.9513H38.078V19.0353H24.2802C23.0103 19.0353 21.9775 20.2111 21.9775 21.6567C21.9775 23.1024 23.0103 24.2781 24.2802 24.2781L42.7699 24.2785V27.3625L24.2802 27.3621Z" fill="white"/>
<path d="M42.7695 34.3005H24.304C18.1966 34.3005 13.2295 28.6279 13.2295 21.6561C13.2295 14.6844 18.1966 9.01172 24.304 9.01172H42.7695V12.0957H24.304C19.6818 12.0957 15.9208 16.3844 15.9208 21.6561C15.9208 26.9278 19.6818 31.2165 24.304 31.2165H42.7695V34.3005Z" fill="white"/>
<path d="M41.2794 15.8978C40.4939 15.8978 39.8581 16.6264 39.8581 17.5266C39.8581 18.4267 40.4939 19.1553 41.2794 19.1553C42.0649 19.1553 42.7007 18.4267 42.7007 17.5266C42.7007 16.6264 42.0649 15.8978 41.2794 15.8978Z" fill="white"/>
<path d="M17.9376 42.6447C18.4649 42.3905 18.7756 41.8915 18.7756 41.2512C18.7756 40.1685 17.9 39.5 16.4877 39.5H13.23V46.0907H16.4877C18.0506 46.0907 18.9827 45.394 18.9827 44.2453C18.9827 43.5297 18.5684 42.9177 17.9376 42.6447ZM16.5159 40.7711C16.9961 40.7711 17.2786 41.0159 17.2786 41.4301C17.2786 41.8444 17.0055 42.0798 16.5159 42.0798H14.7458V40.7711H16.5159ZM16.5912 44.7914H14.7458V43.3038H16.5912C17.1467 43.3038 17.4669 43.5768 17.4669 44.0476C17.4669 44.5089 17.1467 44.7914 16.5912 44.7914Z" fill="white"/>
<path d="M23.0651 44.7914V43.3697H26.4075V42.1269H23.0651V40.7899H26.5958V39.5H21.568V46.0907H26.6993V44.7914H23.0651Z" fill="white"/>
<path d="M34.2528 39.5H28.6883V40.8464H30.6938V46.0907H32.2379V40.8464H34.2528V39.5Z" fill="white"/>
<path d="M41.1035 46.0907H42.77L39.8324 39.5H38.1847L35.2283 46.0907H36.876L37.3656 44.9044H40.6139L41.1035 46.0907ZM39.0039 40.9782L40.0678 43.5768H37.9211L39.0039 40.9782Z" fill="white"/>
</svg>
