<svg width="28" height="36" viewBox="0 0 28 36" fill="none" xmlns="http://www.w3.org/2000/svg">
<path d="M10.4744 17.3935C7.86451 17.3935 5.74087 14.9672 5.74087 11.9856C5.74087 9.00395 7.86451 6.57771 10.4744 6.57771H23.5527V9.50089H10.4744C9.27071 9.50089 8.29179 10.6154 8.29179 11.9856C8.29179 13.3558 9.27071 14.4703 10.4744 14.4703L27.9999 14.4706V17.3938L10.4744 17.3935Z" fill="white"/>
<path d="M27.9995 23.97H10.497C4.70804 23.97 0 18.5932 0 11.985C0 5.37682 4.70804 0 10.497 0H27.9995V2.92318H10.497C6.11583 2.92318 2.55092 6.98822 2.55092 11.985C2.55092 16.9818 6.11583 21.0469 10.497 21.0469H27.9995V23.97Z" fill="white"/>
<path d="M26.5871 6.527C25.8426 6.527 25.2399 7.2176 25.2399 8.0708C25.2399 8.924 25.8426 9.6146 26.5871 9.6146C27.3317 9.6146 27.9343 8.924 27.9343 8.0708C27.9343 7.2176 27.3317 6.527 26.5871 6.527Z" fill="white"/>
<path d="M4.46214 31.8796C4.96191 31.6387 5.25641 31.1657 5.25641 30.5588C5.25641 29.5326 4.42645 28.8989 3.0878 28.8989H0V35.1459H3.0878C4.56924 35.1459 5.45274 34.4855 5.45274 33.3968C5.45274 32.7185 5.06007 32.1384 4.46214 31.8796ZM3.11458 30.1037C3.56972 30.1037 3.83744 30.3357 3.83744 30.7284C3.83744 31.1211 3.57864 31.3442 3.11458 31.3442H1.43681V30.1037H3.11458ZM3.18597 33.9144H1.43681V32.5043H3.18597C3.7125 32.5043 4.01593 32.7631 4.01593 33.2094C4.01593 33.6466 3.7125 33.9144 3.18597 33.9144Z" fill="white"/>
<path d="M9.32219 33.9144V32.5668H12.4903V31.3888H9.32219V30.1216H12.6688V28.8989H7.90322V35.1459H12.767V33.9144H9.32219Z" fill="white"/>
<path d="M19.9265 28.8989H14.6522V30.1751H16.5531V35.1459H18.0167V30.1751H19.9265V28.8989Z" fill="white"/>
<path d="M26.4199 35.1459H27.9995L25.2152 28.8989H23.6534L20.8512 35.1459H22.4129L22.877 34.0215H25.9559L26.4199 35.1459ZM24.4298 30.3L25.4383 32.7631H23.4035L24.4298 30.3Z" fill="white"/>
</svg>
