<svg width="30" height="38" viewBox="0 0 30 38" fill="none" xmlns="http://www.w3.org/2000/svg">
<path d="M11.2802 18.3621C8.52669 18.3621 6.28621 15.8024 6.28621 12.6567C6.28621 9.51104 8.52669 6.95132 11.2802 6.95132H25.078V10.0353H11.2802C10.0103 10.0353 8.97748 11.2111 8.97748 12.6567C8.97748 14.1024 10.0103 15.2781 11.2802 15.2781L29.7699 15.2785V18.3625L11.2802 18.3621Z" fill="black"/>
<path d="M29.7695 25.3005H11.304C5.19656 25.3005 0.229492 19.6279 0.229492 12.6561C0.229492 5.68435 5.19656 0.0117188 11.304 0.0117188H29.7695V3.09572H11.304C6.6818 3.09572 2.92076 7.38441 2.92076 12.6561C2.92076 17.9278 6.6818 22.2165 11.304 22.2165H29.7695V25.3005Z" fill="black"/>
<path d="M28.2794 6.89782C27.4939 6.89782 26.8581 7.62641 26.8581 8.52655C26.8581 9.42669 27.4939 10.1553 28.2794 10.1553C29.0649 10.1553 29.7007 9.42669 29.7007 8.52655C29.7007 7.62641 29.0649 6.89782 28.2794 6.89782Z" fill="black"/>
<path d="M4.93762 33.6447C5.46488 33.3905 5.77558 32.8915 5.77558 32.2512C5.77558 31.1685 4.89996 30.5 3.48767 30.5H0.22998V37.0907H3.48767C5.0506 37.0907 5.98272 36.394 5.98272 35.2453C5.98272 34.5297 5.56845 33.9177 4.93762 33.6447ZM3.51591 31.7711C3.99609 31.7711 4.27855 32.0159 4.27855 32.4301C4.27855 32.8444 4.00551 33.0798 3.51591 33.0798H1.74584V31.7711H3.51591ZM3.59124 35.7914H1.74584V34.3038H3.59124C4.14674 34.3038 4.46686 34.5768 4.46686 35.0476C4.46686 35.5089 4.14674 35.7914 3.59124 35.7914Z" fill="black"/>
<path d="M10.0651 35.7914V34.3697H13.4075V33.1269H10.0651V31.7899H13.5958V30.5H8.56802V37.0907H13.6993V35.7914H10.0651Z" fill="black"/>
<path d="M21.2528 30.5H15.6883V31.8464H17.6938V37.0907H19.2379V31.8464H21.2528V30.5Z" fill="black"/>
<path d="M28.1035 37.0907H29.77L26.8324 30.5H25.1847L22.2283 37.0907H23.876L24.3656 35.9044H27.6139L28.1035 37.0907ZM26.0039 31.9782L27.0678 34.5768H24.9211L26.0039 31.9782Z" fill="black"/>
</svg>
