<svg width="34" height="40" viewBox="0 0 34 40" fill="none" xmlns="http://www.w3.org/2000/svg">
<path d="M6.59968 35.3421C7.17084 35.0667 7.50742 34.5262 7.50742 33.8326C7.50742 32.6597 6.55888 31.9355 5.02898 31.9355H1.5V39.0751H5.02898C6.72207 39.0751 7.73181 38.3203 7.73181 37.076C7.73181 36.3009 7.28304 35.6379 6.59968 35.3421ZM5.05958 33.3125C5.57974 33.3125 5.88572 33.5776 5.88572 34.0264C5.88572 34.4752 5.58994 34.7302 5.05958 34.7302H3.1421V33.3125H5.05958ZM5.14117 37.6676H3.1421V36.0561H5.14117C5.74293 36.0561 6.08971 36.3519 6.08971 36.8618C6.08971 37.3616 5.74293 37.6676 5.14117 37.6676Z" fill="black"/>
<path d="M12.1541 37.6676V36.1275H15.7749V34.7812H12.1541V33.3329H15.9789V31.9355H10.5324V39.0751H16.0911V37.6676H12.1541Z" fill="black"/>
<path d="M24.2735 31.9355H18.2457V33.3941H20.4181V39.0751H22.0908V33.3941H24.2735V31.9355Z" fill="black"/>
<path d="M31.6947 39.0751H33.5L30.3178 31.9355H28.5329L25.3303 39.0751H27.1152L27.6456 37.79H31.1643L31.6947 39.0751ZM29.4203 33.5368L30.5728 36.3519H28.2473L29.4203 33.5368Z" fill="black"/>
<path d="M12.4994 14.5219C11.1258 14.5219 10.0087 13.412 10.0087 12.0475C10.0087 10.683 11.1258 9.57313 12.4994 9.57313H27.4239V6.66211H12.4994C9.52108 6.66211 7.09766 9.07826 7.09766 12.0475C7.09766 15.0167 9.52108 17.4329 12.4994 17.4329H32.5V14.5219H12.4994V14.5219Z" fill="black"/>
<path d="M12.4789 0.0644531C5.87265 0.0644531 0.5 5.41891 0.5 11.9996C0.5 18.5804 5.87265 23.9348 12.4789 23.9348H32.4521V21.0238H12.4789C7.47917 21.0238 3.41102 16.9757 3.41102 11.9996C3.41102 7.02362 7.47917 2.97548 12.4789 2.97548H32.4521V0.0644531H12.4789Z" fill="black"/>
<path d="M30.7711 6.66211C29.9132 6.66211 29.2188 7.35656 29.2188 8.21451C29.2188 9.07246 29.9132 9.76691 30.7711 9.76691C31.6291 9.76691 32.3235 9.07246 32.3235 8.21451C32.3235 7.35656 31.6291 6.66211 30.7711 6.66211V6.66211Z" fill="black"/>
</svg>
