<svg width="29" height="24" viewBox="0 0 29 24" fill="none" xmlns="http://www.w3.org/2000/svg">
<path fill-rule="evenodd" clip-rule="evenodd" d="M10.4856 17.4152H15.9306V17.4151H28.0332V14.4883H15.9299V14.4884H10.4856C9.28034 14.4884 8.3002 13.3725 8.3002 12.0006C8.3002 10.6286 9.28034 9.51277 10.4856 9.51277H23.5802V6.58594H10.4856C7.87239 6.58594 5.74609 9.01521 5.74609 12.0006C5.74609 14.9859 7.87239 17.4152 10.4856 17.4152Z" fill="white"/>
<path d="M28.0345 24H10.5102C4.71393 24 0 18.6165 0 12C0 5.38354 4.71393 0 10.5102 0H28.0345V2.92683H10.5102C6.12348 2.92683 2.55411 6.99695 2.55411 12C2.55411 17.003 6.12348 21.0732 10.5102 21.0732H28.0345V24Z" fill="white"/>
<path d="M26.6184 6.53613C25.8729 6.53613 25.2695 7.2276 25.2695 8.08186C25.2695 8.93613 25.8729 9.62759 26.6184 9.62759C27.3639 9.62759 27.9673 8.93613 27.9673 8.08186C27.9673 7.2276 27.3639 6.53613 26.6184 6.53613Z" fill="white"/>
</svg>
