<svg width="92" height="79" viewBox="0 0 92 79" fill="none" xmlns="http://www.w3.org/2000/svg">
<path d="M78.9955 4.88281L50.9102 26.0222L56.1276 13.5641L78.9955 4.88281Z" fill="#E17726" stroke="#E17726" stroke-width="1.40927" stroke-linecap="round" stroke-linejoin="round"/>
<path d="M14.2773 4.88281L42.0851 26.2195L37.1175 13.5641L14.2773 4.88281Z" fill="#E27625" stroke="#E27625" stroke-width="1.40927" stroke-linecap="round" stroke-linejoin="round"/>
<path d="M68.8931 53.8984L61.4277 65.511L77.413 69.9926L81.9644 54.1521L68.8931 53.8984Z" fill="#E27625" stroke="#E27625" stroke-width="1.40927" stroke-linecap="round" stroke-linejoin="round"/>
<path d="M11.3086 54.1521L15.8322 69.9926L31.8175 65.511L24.3799 53.8984L11.3086 54.1521Z" fill="#E27625" stroke="#E27625" stroke-width="1.40927" stroke-linecap="round" stroke-linejoin="round"/>
<path d="M30.9564 34.2805L26.4883 41.1015L42.3348 41.8343L41.7798 24.5L30.9564 34.2805Z" fill="#E27625" stroke="#E27625" stroke-width="1.40927" stroke-linecap="round" stroke-linejoin="round"/>
<path d="M62.3163 34.2825L51.2987 24.3047L50.9102 41.8363L66.7567 41.1035L62.3163 34.2825Z" fill="#E27625" stroke="#E27625" stroke-width="1.40927" stroke-linecap="round" stroke-linejoin="round"/>
<path d="M31.8164 65.5079L41.3632 60.8008L33.1485 54.2617L31.8164 65.5079Z" fill="#E27625" stroke="#E27625" stroke-width="1.40927" stroke-linecap="round" stroke-linejoin="round"/>
<path d="M51.8828 60.8008L61.4296 65.5079L60.0975 54.2617L51.8828 60.8008Z" fill="#E27625" stroke="#E27625" stroke-width="1.40927" stroke-linecap="round" stroke-linejoin="round"/>
<path d="M61.4296 65.5098L51.8828 60.8027L52.6321 67.1164L52.5489 69.7659L61.4296 65.5098Z" fill="#D5BFB2" stroke="#D5BFB2" stroke-width="1.40927" stroke-linecap="round" stroke-linejoin="round"/>
<path d="M31.8164 65.5098L40.6971 69.7659L40.6416 67.1164L41.3632 60.8027L31.8164 65.5098Z" fill="#D5BFB2" stroke="#D5BFB2" stroke-width="1.40927" stroke-linecap="round" stroke-linejoin="round"/>
<path d="M40.8629 50.0905L32.9258 47.7229L38.5317 45.1016L40.8629 50.0905Z" fill="#233447" stroke="#233447" stroke-width="1.40927" stroke-linecap="round" stroke-linejoin="round"/>
<path d="M52.3809 50.0905L54.7121 45.1016L60.3735 47.7229L52.3809 50.0905Z" fill="#233447" stroke="#233447" stroke-width="1.40927" stroke-linecap="round" stroke-linejoin="round"/>
<path d="M31.8165 65.511L33.2041 53.8984L24.3789 54.1521L31.8165 65.511Z" fill="#CC6228" stroke="#CC6228" stroke-width="1.40927" stroke-linecap="round" stroke-linejoin="round"/>
<path d="M60.041 53.8984L61.4286 65.511L68.894 54.1521L60.041 53.8984Z" fill="#CC6228" stroke="#CC6228" stroke-width="1.40927" stroke-linecap="round" stroke-linejoin="round"/>
<path d="M66.7567 41.0996L50.9102 41.8324L52.381 50.0909L54.7122 45.102L60.3737 47.7233L66.7567 41.0996Z" fill="#CC6228" stroke="#CC6228" stroke-width="1.40927" stroke-linecap="round" stroke-linejoin="round"/>
<path d="M32.9268 47.7233L38.5328 45.102L40.864 50.0909L42.3348 41.8324L26.4883 41.0996L32.9268 47.7233Z" fill="#CC6228" stroke="#CC6228" stroke-width="1.40927" stroke-linecap="round" stroke-linejoin="round"/>
<path d="M26.4883 41.0996L33.1488 54.2624L32.9268 47.7233L26.4883 41.0996Z" fill="#E27525" stroke="#E27525" stroke-width="1.40927" stroke-linecap="round" stroke-linejoin="round"/>
<path d="M60.3732 47.7233L60.0957 54.2624L66.7562 41.0996L60.3732 47.7233Z" fill="#E27525" stroke="#E27525" stroke-width="1.40927" stroke-linecap="round" stroke-linejoin="round"/>
<path d="M42.3341 41.832L40.8633 50.0905L42.7227 59.8429L43.1112 46.9901L42.3341 41.832Z" fill="#E27525" stroke="#E27525" stroke-width="1.40927" stroke-linecap="round" stroke-linejoin="round"/>
<path d="M50.9114 41.832L50.1621 46.9619L50.5229 59.8429L52.3823 50.0905L50.9114 41.832Z" fill="#E27525" stroke="#E27525" stroke-width="1.40927" stroke-linecap="round" stroke-linejoin="round"/>
<path d="M52.3828 50.0922L50.5234 59.8445L51.8833 60.8029L60.098 54.2637L60.3755 47.7246L52.3828 50.0922Z" fill="#F5841F" stroke="#F5841F" stroke-width="1.40927" stroke-linecap="round" stroke-linejoin="round"/>
<path d="M32.9258 47.7246L33.1478 54.2637L41.3625 60.8029L42.7223 59.8445L40.8629 50.0922L32.9258 47.7246Z" fill="#F5841F" stroke="#F5841F" stroke-width="1.40927" stroke-linecap="round" stroke-linejoin="round"/>
<path d="M52.5474 69.7658L52.6306 67.1164L51.9368 66.4963H41.3077L40.6416 67.1164L40.6971 69.7658L31.8164 65.5098L34.9247 68.1029L41.2244 72.5281H52.0201L58.3198 68.1029L61.4281 65.5098L52.5474 69.7658Z" fill="#C0AC9D" stroke="#C0AC9D" stroke-width="1.40927" stroke-linecap="round" stroke-linejoin="round"/>
<path d="M51.8803 60.8021L50.5204 59.8438H42.722L41.3622 60.8021L40.6406 67.1157L41.3067 66.4956H51.9358L52.6296 67.1157L51.8803 60.8021Z" fill="#161616" stroke="#161616" stroke-width="1.40927" stroke-linecap="round" stroke-linejoin="round"/>
<path d="M80.1624 27.4034L82.5213 15.7344L78.9968 4.88281L51.8828 25.3176L62.3177 34.2807L77.0264 38.6495L80.2734 34.7881L78.858 33.7452L81.1337 31.6594L79.4131 30.2783L81.661 28.559L80.1624 27.4034Z" fill="#763E1A" stroke="#763E1A" stroke-width="1.40927" stroke-linecap="round" stroke-linejoin="round"/>
<path d="M10.7246 15.7344L13.1113 27.4034L11.5849 28.559L13.8329 30.2783L12.1122 31.6594L14.3879 33.7452L12.9725 34.7881L16.2196 38.6495L30.956 34.2807L41.3631 25.3176L14.2769 4.88281L10.7246 15.7344Z" fill="#763E1A" stroke="#763E1A" stroke-width="1.40927" stroke-linecap="round" stroke-linejoin="round"/>
<path d="M77.0246 38.6481L62.3159 34.2793L66.7562 41.1003L60.0957 54.2631L68.8932 54.1503H81.9645L77.0246 38.6481Z" fill="#F5841F" stroke="#F5841F" stroke-width="1.40927" stroke-linecap="round" stroke-linejoin="round"/>
<path d="M30.9572 34.2793L16.2207 38.6481L11.3086 54.1503H24.3799L33.1496 54.2631L26.4891 41.1003L30.9572 34.2793Z" fill="#F5841F" stroke="#F5841F" stroke-width="1.40927" stroke-linecap="round" stroke-linejoin="round"/>
<path d="M50.9101 41.8349L51.8814 25.318L56.1275 13.5645H37.1172L41.3633 25.318L42.3346 41.8349L42.6954 47.0211L42.7231 59.8457H50.5215L50.5493 47.0211L50.9101 41.8349Z" fill="#F5841F" stroke="#F5841F" stroke-width="1.40927" stroke-linecap="round" stroke-linejoin="round"/>
</svg>
