<svg width="26" height="26" viewBox="0 0 26 26" fill="none" xmlns="http://www.w3.org/2000/svg">
<path d="M24.0769 11.6062H13.9231V1.45237C13.9231 0.944681 13.5077 0.529297 13 0.529297C12.4923 0.529297 12.0769 0.944681 12.0769 1.45237V11.6062H1.92308C1.41538 11.6062 1 12.0216 1 12.5293C1 13.037 1.41538 13.4524 1.92308 13.4524H12.0769V23.6062C12.0769 24.1139 12.4923 24.5293 13 24.5293C13.5077 24.5293 13.9231 24.1139 13.9231 23.6062V13.4524H24.0769C24.5846 13.4524 25 13.037 25 12.5293C25 12.0216 24.5846 11.6062 24.0769 11.6062Z" fill="#F3523F" stroke="#F3523F"/>
</svg>
