<svg width="31" height="27" viewBox="0 0 31 27" fill="none" xmlns="http://www.w3.org/2000/svg">
<path d="M22.8706 16.7603C23.4372 15.8427 24.7716 15.8427 25.3382 16.7603L30.2281 24.6797C30.8245 25.6458 30.1296 26.8915 28.9943 26.8915H19.2145C18.0791 26.8915 17.3842 25.6457 17.9807 24.6797L22.8706 16.7603Z" fill="#F3523F"/>
<path d="M14.7562 1.07135C15.2996 0.146032 16.6249 0.111011 17.2164 1.00634L21.5636 7.58667C21.8686 8.04825 21.8843 8.64313 21.6042 9.12018L11.5885 26.1758C11.3281 26.6192 10.8524 26.8915 10.3382 26.8915H2.12677C1.0058 26.8915 0.308779 25.6739 0.876415 24.7073L14.7562 1.07135Z" fill="#F3523F"/>
</svg>
