<svg width="26" height="26" viewBox="0 0 26 26" fill="none" xmlns="http://www.w3.org/2000/svg">
<path d="M24.757 23.4665L21.7205 20.1501C23.4926 18.0531 24.4617 15.4296 24.4617 12.6582C24.4617 9.54503 23.2434 6.60739 21.0283 4.40878C16.4504 -0.136259 9.0113 -0.136259 4.43341 4.40878C2.21831 6.61663 1 9.54503 1 12.6582C1 15.7714 2.21831 18.709 4.43341 20.9076C6.72236 23.1801 9.72198 24.3164 12.7308 24.3164C15.472 24.3164 18.2132 23.3557 20.4099 21.4527L23.391 24.7044C23.5756 24.8984 23.8248 25 24.074 25C24.2955 25 24.517 24.9169 24.7016 24.7598C25.08 24.418 25.0985 23.8268 24.757 23.4573V23.4665ZM5.73479 19.5958C3.87041 17.739 2.84592 15.2818 2.84592 12.6582C2.84592 10.0346 3.87041 7.57737 5.73479 5.72055C7.66378 3.79908 10.1927 2.84758 12.7308 2.84758C15.269 2.84758 17.7979 3.80831 19.7269 5.72055C21.5913 7.57737 22.6157 10.0346 22.6157 12.6582C22.6157 15.2818 21.5913 17.7483 19.7269 19.5958C15.8689 23.4296 9.59277 23.4296 5.74402 19.5958H5.73479Z" fill="white" stroke="white"/>
</svg>
