<svg width="48" height="36" viewBox="0 0 48 36" fill="none" xmlns="http://www.w3.org/2000/svg">
<path d="M18.0011 21.7828C15.9406 21.7828 14.265 20.1181 14.265 18.0713C14.265 16.0244 15.9406 14.3597 18.0011 14.3597H40.3878V9.99316H18.0011C13.5336 9.99316 9.89844 13.6174 9.89844 18.0713C9.89844 22.5251 13.5336 26.1494 18.0011 26.1494H48.0019V21.7828H18.0011Z" fill="#F3523F"/>
<path d="M17.9683 0.097168C8.05899 0.097168 0 8.12887 0 18C0 27.8711 8.05899 35.9028 17.9683 35.9028H47.9282V31.5362H17.9683C10.4688 31.5362 4.36654 25.464 4.36654 18C4.36654 10.5359 10.4688 4.46371 17.9683 4.46371H47.9282V0.097168H17.9683Z" fill="#F3523F"/>
<path d="M45.4067 9.99316C44.1198 9.99316 43.0781 11.0348 43.0781 12.3218C43.0781 13.6087 44.1198 14.6504 45.4067 14.6504C46.6937 14.6504 47.7353 13.6087 47.7353 12.3218C47.7353 11.0348 46.6937 9.99316 45.4067 9.99316Z" fill="#F3523F"/>
</svg>
