<svg width="19" height="27" viewBox="0 0 19 27" fill="none" xmlns="http://www.w3.org/2000/svg">
    <path d="M3.27344 6.31013L6.98054 2.60303H18.2734V25.603H3.27344V6.31013Z" stroke="black"/>
    <path d="M16.8398 0.103027H4.83984L0.839844 4.10303V24.103H16.8398V0.103027Z" fill="black"/>
    <path d="M8.68984 15.763C8.11651 15.763 7.56318 15.6764 7.02984 15.503C6.50318 15.3297 6.04651 15.0864 5.65984 14.773L6.50984 13.583C7.12984 14.0697 7.85318 14.313 8.67984 14.313C9.09318 14.313 9.41984 14.243 9.65984 14.103C9.90651 13.963 10.0298 13.773 10.0298 13.533C10.0298 13.3064 9.91651 13.1297 9.68984 13.003C9.46318 12.8764 9.10318 12.7864 8.60984 12.733C7.65651 12.6264 6.95651 12.403 6.50984 12.063C6.06984 11.723 5.84984 11.2364 5.84984 10.603C5.84984 10.1764 5.96984 9.79969 6.20984 9.47303C6.44984 9.14636 6.78651 8.89303 7.21984 8.71303C7.65318 8.53303 8.15318 8.44303 8.71984 8.44303C9.20651 8.44303 9.67984 8.51303 10.1398 8.65303C10.6065 8.79303 11.0165 8.98969 11.3698 9.24303L10.5998 10.393C10.0532 10.013 9.44984 9.82303 8.78984 9.82303C8.38318 9.82303 8.05651 9.88969 7.80984 10.023C7.56984 10.1564 7.44984 10.3364 7.44984 10.563C7.44984 10.783 7.55318 10.953 7.75984 11.073C7.97318 11.193 8.32651 11.283 8.81984 11.343C9.76651 11.4497 10.4732 11.6864 10.9398 12.053C11.4065 12.413 11.6398 12.9097 11.6398 13.543C11.6398 13.983 11.5165 14.373 11.2698 14.713C11.0232 15.0464 10.6765 15.3064 10.2298 15.493C9.78318 15.673 9.26984 15.763 8.68984 15.763Z" fill="#F8F8F8"/>
</svg>
