<svg width="102" height="49" viewBox="0 0 102 49" fill="none" xmlns="http://www.w3.org/2000/svg">
<g clip-path="url(#clip0_1_980)">
<path d="M50.9999 12.493C78.5599 12.493 100.902 9.9422 100.902 6.79559C100.902 3.64898 78.5599 1.09814 50.9999 1.09814C23.4399 1.09814 1.09814 3.64898 1.09814 6.79559C1.09814 9.9422 23.4399 12.493 50.9999 12.493Z" stroke="black" stroke-miterlimit="10"/>
<path d="M50.9999 30.1749C78.5599 30.1749 100.902 27.6241 100.902 24.4775C100.902 21.3309 78.5599 18.78 50.9999 18.78C23.4399 18.78 1.09814 21.3309 1.09814 24.4775C1.09814 27.6241 23.4399 30.1749 50.9999 30.1749Z" stroke="black" stroke-miterlimit="10"/>
<path d="M50.9999 47.8566C78.5599 47.8566 100.902 45.3057 100.902 42.1591C100.902 39.0125 78.5599 36.4617 50.9999 36.4617C23.4399 36.4617 1.09814 39.0125 1.09814 42.1591C1.09814 45.3057 23.4399 47.8566 50.9999 47.8566Z" stroke="black" stroke-miterlimit="10"/>
</g>
<defs>
<clipPath id="clip0_1_980">
<rect width="102" height="49" fill="white"/>
</clipPath>
</defs>
</svg>
