<svg width="19" height="22" viewBox="0 0 19 22" fill="none" xmlns="http://www.w3.org/2000/svg">
<path d="M12.5938 0.978516H6.59375V2.97852H12.5938V0.978516ZM8.59375 13.9785H10.5938V7.97852H8.59375V13.9785ZM16.6238 7.36852L18.0438 5.94852C17.6138 5.43852 17.1438 4.95852 16.6338 4.53852L15.2138 5.95852C13.6638 4.71852 11.7137 3.97852 9.59375 3.97852C4.62375 3.97852 0.59375 8.00852 0.59375 12.9785C0.59375 17.9485 4.61375 21.9785 9.59375 21.9785C14.5737 21.9785 18.5938 17.9485 18.5938 12.9785C18.5938 10.8585 17.8538 8.90852 16.6238 7.36852ZM9.59375 19.9785C5.72375 19.9785 2.59375 16.8485 2.59375 12.9785C2.59375 9.10852 5.72375 5.97852 9.59375 5.97852C13.4637 5.97852 16.5938 9.10852 16.5938 12.9785C16.5938 16.8485 13.4637 19.9785 9.59375 19.9785Z" fill="#323232"/>
</svg>
