<svg width="88" height="96" viewBox="0 0 88 96" fill="none" xmlns="http://www.w3.org/2000/svg">
<g clip-path="url(#clip0_1_949)">
<path d="M1.71987 3.43974C2.66973 3.43974 3.43974 2.66973 3.43974 1.71987C3.43974 0.770012 2.66973 0 1.71987 0C0.770012 0 0 0.770012 0 1.71987C0 2.66973 0.770012 3.43974 1.71987 3.43974Z" fill="black"/>
<path d="M22.8629 3.72624C23.8128 3.72624 24.5828 2.95623 24.5828 2.00637C24.5828 1.05651 23.8128 0.286499 22.8629 0.286499C21.9131 0.286499 21.1431 1.05651 21.1431 2.00637C21.1431 2.95623 21.9131 3.72624 22.8629 3.72624Z" fill="black"/>
<path d="M65.1374 3.72624C66.0872 3.72624 66.8572 2.95623 66.8572 2.00637C66.8572 1.05651 66.0872 0.286499 65.1374 0.286499C64.1875 0.286499 63.4175 1.05651 63.4175 2.00637C63.4175 2.95623 64.1875 3.72624 65.1374 3.72624Z" fill="black"/>
<path d="M44.0001 3.72624C44.95 3.72624 45.72 2.95623 45.72 2.00637C45.72 1.05651 44.95 0.286499 44.0001 0.286499C43.0503 0.286499 42.2803 1.05651 42.2803 2.00637C42.2803 2.95623 43.0503 3.72624 44.0001 3.72624Z" fill="black"/>
<path d="M86.2804 3.72624C87.2303 3.72624 88.0003 2.95623 88.0003 2.00637C88.0003 1.05651 87.2303 0.286499 86.2804 0.286499C85.3306 0.286499 84.5605 1.05651 84.5605 2.00637C84.5605 2.95623 85.3306 3.72624 86.2804 3.72624Z" fill="black"/>
<path d="M1.72004 26.4745C2.54958 26.4745 3.22206 25.802 3.22206 24.9725C3.22206 24.1429 2.54958 23.4705 1.72004 23.4705C0.890495 23.4705 0.218018 24.1429 0.218018 24.9725C0.218018 25.802 0.890495 26.4745 1.72004 26.4745Z" fill="black"/>
<path d="M22.8629 26.7612C23.6924 26.7612 24.3649 26.0888 24.3649 25.2592C24.3649 24.4297 23.6924 23.7572 22.8629 23.7572C22.0333 23.7572 21.3608 24.4297 21.3608 25.2592C21.3608 26.0888 22.0333 26.7612 22.8629 26.7612Z" fill="black"/>
<path d="M65.1373 26.7612C65.9668 26.7612 66.6393 26.0888 66.6393 25.2592C66.6393 24.4297 65.9668 23.7572 65.1373 23.7572C64.3077 23.7572 63.6353 24.4297 63.6353 25.2592C63.6353 26.0888 64.3077 26.7612 65.1373 26.7612Z" fill="black"/>
<path d="M44.0001 26.7612C44.8296 26.7612 45.5021 26.0888 45.5021 25.2592C45.5021 24.4297 44.8296 23.7572 44.0001 23.7572C43.1705 23.7572 42.498 24.4297 42.498 25.2592C42.498 26.0888 43.1705 26.7612 44.0001 26.7612Z" fill="black"/>
<path d="M86.2803 26.7612C87.1099 26.7612 87.7824 26.0888 87.7824 25.2592C87.7824 24.4297 87.1099 23.7572 86.2803 23.7572C85.4508 23.7572 84.7783 24.4297 84.7783 25.2592C84.7783 26.0888 85.4508 26.7612 86.2803 26.7612Z" fill="black"/>
<path d="M1.72008 49.5154C2.43247 49.5154 3.00998 48.9378 3.00998 48.2254C3.00998 47.5131 2.43247 46.9355 1.72008 46.9355C1.00768 46.9355 0.430176 47.5131 0.430176 48.2254C0.430176 48.9378 1.00768 49.5154 1.72008 49.5154Z" fill="black"/>
<path d="M22.8629 49.8019C23.5753 49.8019 24.1528 49.2243 24.1528 48.5119C24.1528 47.7996 23.5753 47.222 22.8629 47.222C22.1505 47.222 21.573 47.7996 21.573 48.5119C21.573 49.2243 22.1505 49.8019 22.8629 49.8019Z" fill="black"/>
<path d="M65.1373 49.8019C65.8497 49.8019 66.4272 49.2243 66.4272 48.5119C66.4272 47.7996 65.8497 47.222 65.1373 47.222C64.4249 47.222 63.8474 47.7996 63.8474 48.5119C63.8474 49.2243 64.4249 49.8019 65.1373 49.8019Z" fill="black"/>
<path d="M44.0001 49.8019C44.7125 49.8019 45.29 49.2243 45.29 48.5119C45.29 47.7996 44.7125 47.222 44.0001 47.222C43.2877 47.222 42.7102 47.7996 42.7102 48.5119C42.7102 49.2243 43.2877 49.8019 44.0001 49.8019Z" fill="black"/>
<path d="M86.2801 49.8019C86.9925 49.8019 87.57 49.2243 87.57 48.5119C87.57 47.7996 86.9925 47.222 86.2801 47.222C85.5677 47.222 84.9902 47.7996 84.9902 48.5119C84.9902 49.2243 85.5677 49.8019 86.2801 49.8019Z" fill="black"/>
<path d="M1.72012 72.5616C2.31536 72.5616 2.7979 72.079 2.7979 71.4838C2.7979 70.8885 2.31536 70.406 1.72012 70.406C1.12487 70.406 0.642334 70.8885 0.642334 71.4838C0.642334 72.079 1.12487 72.5616 1.72012 72.5616Z" fill="black"/>
<path d="M22.8629 72.8488C23.4582 72.8488 23.9407 72.3663 23.9407 71.771C23.9407 71.1758 23.4582 70.6932 22.8629 70.6932C22.2677 70.6932 21.7852 71.1758 21.7852 71.771C21.7852 72.3663 22.2677 72.8488 22.8629 72.8488Z" fill="black"/>
<path d="M65.1374 72.8488C65.7326 72.8488 66.2151 72.3663 66.2151 71.771C66.2151 71.1758 65.7326 70.6932 65.1374 70.6932C64.5421 70.6932 64.0596 71.1758 64.0596 71.771C64.0596 72.3663 64.5421 72.8488 65.1374 72.8488Z" fill="black"/>
<path d="M44.0001 72.8488C44.5954 72.8488 45.0779 72.3663 45.0779 71.771C45.0779 71.1758 44.5954 70.6932 44.0001 70.6932C43.4049 70.6932 42.9224 71.1758 42.9224 71.771C42.9224 72.3663 43.4049 72.8488 44.0001 72.8488Z" fill="black"/>
<path d="M86.2802 72.8488C86.8754 72.8488 87.358 72.3663 87.358 71.771C87.358 71.1758 86.8754 70.6932 86.2802 70.6932C85.6849 70.6932 85.2024 71.1758 85.2024 71.771C85.2024 72.3663 85.6849 72.8488 86.2802 72.8488Z" fill="black"/>
<path d="M1.72004 95.5962C2.19497 95.5962 2.57998 95.2112 2.57998 94.7363C2.57998 94.2613 2.19497 93.8763 1.72004 93.8763C1.24511 93.8763 0.860107 94.2613 0.860107 94.7363C0.860107 95.2112 1.24511 95.5962 1.72004 95.5962Z" fill="black"/>
<path d="M22.8631 95.8826C23.338 95.8826 23.723 95.4976 23.723 95.0227C23.723 94.5477 23.338 94.1627 22.8631 94.1627C22.3882 94.1627 22.0032 94.5477 22.0032 95.0227C22.0032 95.4976 22.3882 95.8826 22.8631 95.8826Z" fill="black"/>
<path d="M65.1375 95.8826C65.6125 95.8826 65.9975 95.4976 65.9975 95.0227C65.9975 94.5477 65.6125 94.1627 65.1375 94.1627C64.6626 94.1627 64.2776 94.5477 64.2776 95.0227C64.2776 95.4976 64.6626 95.8826 65.1375 95.8826Z" fill="black"/>
<path d="M44.0003 95.8826C44.4752 95.8826 44.8603 95.4976 44.8603 95.0227C44.8603 94.5477 44.4752 94.1627 44.0003 94.1627C43.5254 94.1627 43.1404 94.5477 43.1404 95.0227C43.1404 95.4976 43.5254 95.8826 44.0003 95.8826Z" fill="black"/>
<path d="M86.2806 95.8826C86.7555 95.8826 87.1405 95.4976 87.1405 95.0227C87.1405 94.5477 86.7555 94.1627 86.2806 94.1627C85.8057 94.1627 85.4207 94.5477 85.4207 95.0227C85.4207 95.4976 85.8057 95.8826 86.2806 95.8826Z" fill="black"/>
</g>
<defs>
<clipPath id="clip0_1_949">
<rect width="88" height="95.8827" fill="white"/>
</clipPath>
</defs>
</svg>
