<svg width="24" height="19" viewBox="0 0 24 19" fill="none" xmlns="http://www.w3.org/2000/svg">
<path d="M21.2975 4.73C21.3118 4.93614 21.3118 5.14227 21.3118 5.35031C21.3118 11.6893 16.4861 19 7.66208 19V18.9962C5.05544 19 2.50296 18.2533 0.308594 16.8455C0.68762 16.8911 1.06855 16.9139 1.45042 16.9149C3.61059 16.9168 5.709 16.192 7.40845 14.8573C5.35563 14.8184 3.55549 13.4799 2.92663 11.5259C3.64573 11.6646 4.38669 11.6361 5.09249 11.4432C2.85443 10.9911 1.24428 9.02468 1.24428 6.74102C1.24428 6.72013 1.24428 6.70018 1.24428 6.68023C1.91114 7.05165 2.6578 7.25779 3.42155 7.28059C1.31363 5.87183 0.663871 3.06761 1.93679 0.875144C4.37244 3.87221 7.96606 5.69419 11.8238 5.88703C11.4371 4.22083 11.9653 2.47484 13.2116 1.30357C15.1438 -0.512718 18.1827 -0.419624 19.999 1.5116C21.0733 1.29977 22.1031 0.905542 23.0454 0.346977C22.6873 1.45746 21.9378 2.40075 20.9365 3.00016C21.8874 2.88807 22.8165 2.63348 23.6914 2.24496C23.0473 3.2101 22.2361 4.05079 21.2975 4.73Z" fill="black"/>
</svg>
