<svg width="41" height="39" viewBox="0 0 41 39" fill="none" xmlns="http://www.w3.org/2000/svg">
<path fill-rule="evenodd" clip-rule="evenodd" d="M0.742112 36.9793C0.351588 37.3698 0.351588 38.003 0.742112 38.3935C1.13264 38.784 1.7658 38.784 2.15633 38.3935L20.4995 20.0503L38.8427 38.3935C39.2332 38.784 39.8664 38.784 40.2569 38.3935C40.6474 38.003 40.6474 37.3698 40.2569 36.9793L21.9137 18.6361L38.8427 1.70711C39.2332 1.31658 39.2332 0.683417 38.8427 0.292893C38.4522 -0.0976312 37.819 -0.0976309 37.4285 0.292893L20.4995 17.2219L3.57054 0.292895C3.18001 -0.097629 2.54685 -0.0976289 2.15633 0.292895C1.7658 0.68342 1.7658 1.31658 2.15633 1.70711L19.0853 18.6361L0.742112 36.9793Z" fill="black" fill-opacity="0.8"/>
</svg>
