<svg width="24" height="24" viewBox="0 0 24 24" fill="none" xmlns="http://www.w3.org/2000/svg">
<path d="M15.1619 13.6851C15.1619 12.0221 14.1641 11.4519 12.1685 11.2144C10.743 11.0243 10.4579 10.6442 10.4579 9.97891C10.4579 9.31362 10.9331 8.88609 11.8834 8.88609C12.7387 8.88609 13.2139 9.17118 13.4514 9.88391C13.4989 10.0265 13.6415 10.1215 13.784 10.1215H14.5442C14.7343 10.1215 14.8769 9.97891 14.8769 9.78892V9.74137C14.6868 8.69599 13.8315 7.88827 12.7387 7.79327V6.6529C12.7387 6.4628 12.5961 6.32026 12.3586 6.27271H11.6458C11.4557 6.27271 11.3132 6.41525 11.2656 6.6529V7.74572C9.84019 7.93582 8.93747 8.88609 8.93747 10.074C8.93747 11.642 9.88774 12.2596 11.8834 12.4973C13.2139 12.7348 13.6415 13.0199 13.6415 13.7802C13.6415 14.5405 12.9762 15.0631 12.0735 15.0631C10.838 15.0631 10.4104 14.5404 10.2678 13.8277C10.2204 13.6377 10.0778 13.5426 9.93529 13.5426H9.12745C8.93747 13.5426 8.79492 13.6851 8.79492 13.8752V13.9228C8.98491 15.1106 9.74519 15.9658 11.3132 16.2035V17.3439C11.3132 17.5339 11.4557 17.6764 11.6933 17.724H12.406C12.5961 17.724 12.7387 17.5814 12.7862 17.3439V16.2035C14.2117 15.9658 15.1619 14.968 15.1619 13.6851Z" fill="black"/>
<path fill-rule="evenodd" clip-rule="evenodd" d="M5.36396 9.53531C3.98967 13.1842 5.88518 17.3068 9.58136 18.6336C9.72352 18.7284 9.86568 18.9179 9.86568 19.0601V19.7236C9.86568 19.8183 9.86568 19.8657 9.81825 19.913C9.77094 20.1026 9.58136 20.1974 9.39177 20.1026C6.73814 19.2497 4.70047 17.212 3.84751 14.5584C2.4259 10.0566 4.89006 5.27049 9.39177 3.84889C9.4392 3.80157 9.53393 3.80157 9.58136 3.80157C9.77094 3.84889 9.86568 3.99105 9.86568 4.18063V4.84401C9.86568 5.08102 9.77094 5.22318 9.58136 5.31792C7.63853 6.02872 6.07476 7.54506 5.36396 9.53531ZM14.1802 4.03818C14.2275 3.84859 14.4171 3.75386 14.6067 3.84859C17.2129 4.70156 19.298 6.73923 20.151 9.44028C21.5726 13.942 19.1084 18.7281 14.6067 20.1497C14.5593 20.1971 14.4646 20.1971 14.4171 20.1971C14.2275 20.1497 14.1328 20.0076 14.1328 19.818V19.1546C14.1328 18.9176 14.2275 18.7755 14.4171 18.6807C16.36 17.9699 17.9237 16.4536 18.6345 14.4633C20.0088 10.8145 18.1133 6.6918 14.4171 5.36505C14.275 5.2702 14.1328 5.08073 14.1328 4.89114V4.22776C14.1328 4.13291 14.1328 4.0856 14.1802 4.03818Z" fill="black"/>
</svg>
