<svg width="290" height="175" viewBox="0 0 290 175" fill="none" xmlns="http://www.w3.org/2000/svg">
<g clip-path="url(#clip0_1_884)">
<path d="M8.73545 60.2654H0.223374V22.9675L22.9706 0.220215H60.3486V6.72944" stroke="#F3523F" stroke-miterlimit="10"/>
<path d="M68.8604 6.73462V19.9383H36.9501L21.9388 34.9496V66.7748H8.73009V29.4819L31.4824 6.73462H68.8604Z" stroke="#F3523F" stroke-miterlimit="10"/>
<path d="M68.8604 6.73457L60.3483 0.225342" stroke="#F3523F" stroke-miterlimit="10"/>
<path d="M8.73145 66.7746L0.219375 60.2654" stroke="#F3523F" stroke-miterlimit="10"/>
</g>
<g clip-path="url(#clip1_1_884)">
<path d="M278.431 101.735L286.943 101.735L286.943 139.033L264.195 161.78L226.817 161.78L226.817 155.271" stroke="#F3523F" stroke-miterlimit="10"/>
<path d="M218.306 155.265L218.306 142.062L250.216 142.062L265.227 127.05L265.227 95.2253L278.436 95.2253L278.436 132.518L255.684 155.265L218.306 155.265Z" stroke="#F3523F" stroke-miterlimit="10"/>
<path d="M218.306 155.265L226.818 161.775" stroke="#F3523F" stroke-miterlimit="10"/>
<path d="M278.435 95.2254L286.947 101.735" stroke="#F3523F" stroke-miterlimit="10"/>
</g>
<path d="M87.6924 74.4L83.6064 84.552L81.6624 79.638L79.5384 74.4H77.2704L82.4904 87H84.7584L89.9604 74.4H87.6924ZM92.1373 76.776C92.9113 76.776 93.4513 76.254 93.4513 75.552C93.4513 74.814 92.9113 74.292 92.1373 74.292C91.3993 74.292 90.8593 74.814 90.8593 75.552C90.8593 76.254 91.3993 76.776 92.1373 76.776ZM91.1293 87H93.1453V78.108H91.1293V87ZM99.6437 77.928C96.8897 77.928 95.0357 79.8 95.0357 82.554C95.0357 85.398 96.9257 87.252 99.8597 87.252C101.39 87.252 102.812 86.658 103.694 85.704L102.47 84.516C101.93 85.074 100.922 85.434 99.9137 85.434C98.3477 85.434 97.2677 84.606 97.1057 83.31H104.216C104.504 79.98 102.776 77.928 99.6437 77.928ZM99.6977 79.674C101.174 79.674 102.146 80.484 102.29 81.744H97.1237C97.3757 80.43 98.2937 79.674 99.6977 79.674ZM117.129 78.108L116.157 81.384L115.167 84.732L112.899 78.108H111.189L108.903 84.696L107.949 81.384L106.941 78.108H104.799L107.769 87H109.929L110.775 84.462L112.053 80.898L113.331 84.462L114.177 87H116.319L119.271 78.108H117.129ZM125.08 87H133.828V85.038H127.186V74.4H125.08V87ZM136.381 76.776C137.155 76.776 137.695 76.254 137.695 75.552C137.695 74.814 137.155 74.292 136.381 74.292C135.643 74.292 135.103 74.814 135.103 75.552C135.103 76.254 135.643 76.776 136.381 76.776ZM135.373 87H137.389V78.108H135.373V87ZM145.184 85.074C144.842 85.236 144.428 85.344 144.068 85.344C143.24 85.344 142.826 84.84 142.826 83.94V79.818H145.382V78.108H142.826V75.57L140.828 75.786V78.108H139.154V79.818H140.828V83.94C140.828 86.064 141.908 87.126 143.744 87.126C144.482 87.126 145.058 87 145.742 86.694L145.184 85.074ZM151.271 77.928C148.517 77.928 146.663 79.8 146.663 82.554C146.663 85.398 148.553 87.252 151.487 87.252C153.017 87.252 154.439 86.658 155.321 85.704L154.097 84.516C153.557 85.074 152.549 85.434 151.541 85.434C149.975 85.434 148.895 84.606 148.733 83.31H155.843C156.131 79.98 154.403 77.928 151.271 77.928ZM151.325 79.674C152.801 79.674 153.773 80.484 153.917 81.744H148.751C149.003 80.43 149.921 79.674 151.325 79.674ZM162.738 77.91C161.37 77.91 160.182 78.432 159.498 79.296L159.48 78.108H157.68V91.104H159.696V86.028C160.398 86.766 161.496 87.198 162.738 87.198C165.348 87.198 167.148 85.29 167.148 82.554C167.148 79.818 165.348 77.91 162.738 77.91ZM162.414 85.362C160.83 85.362 159.696 84.21 159.696 82.554C159.696 80.898 160.83 79.746 162.414 79.746C164.016 79.746 165.132 80.898 165.132 82.554C165.132 84.21 164.016 85.362 162.414 85.362ZM176.11 78.108L176.092 79.296C175.408 78.432 174.238 77.91 172.852 77.91C170.242 77.91 168.442 79.818 168.442 82.554C168.442 85.29 170.242 87.198 172.852 87.198C174.22 87.198 175.408 86.676 176.092 85.812L176.11 87H177.91V78.108H176.11ZM173.176 85.362C171.574 85.362 170.458 84.21 170.458 82.554C170.458 80.898 171.574 79.746 173.176 79.746C174.778 79.746 175.894 80.898 175.894 82.554C175.894 84.21 174.778 85.362 173.176 85.362ZM185.414 77.91C184.046 77.91 182.858 78.432 182.174 79.296L182.156 78.108H180.356V91.104H182.372V86.028C183.074 86.766 184.172 87.198 185.414 87.198C188.024 87.198 189.824 85.29 189.824 82.554C189.824 79.818 188.024 77.91 185.414 77.91ZM185.09 85.362C183.506 85.362 182.372 84.21 182.372 82.554C182.372 80.898 183.506 79.746 185.09 79.746C186.692 79.746 187.808 80.898 187.808 82.554C187.808 84.21 186.692 85.362 185.09 85.362ZM195.726 77.928C192.972 77.928 191.118 79.8 191.118 82.554C191.118 85.398 193.008 87.252 195.942 87.252C197.472 87.252 198.894 86.658 199.776 85.704L198.552 84.516C198.012 85.074 197.004 85.434 195.996 85.434C194.43 85.434 193.35 84.606 193.188 83.31H200.298C200.586 79.98 198.858 77.928 195.726 77.928ZM195.78 79.674C197.256 79.674 198.228 80.484 198.372 81.744H193.206C193.458 80.43 194.376 79.674 195.78 79.674ZM206.653 77.928C205.537 77.928 204.655 78.396 203.953 79.476L203.935 78.108H202.135V87H204.151V82.662C204.151 80.916 205.069 79.854 206.509 79.854C207.049 79.854 207.499 79.998 208.003 80.34L208.903 78.702C208.363 78.216 207.517 77.928 206.653 77.928Z" fill="black"/>
<defs>
<clipPath id="clip0_1_884">
<rect width="69.083" height="67" fill="white" transform="matrix(-1 0 0 1 69.083 0)"/>
</clipPath>
<clipPath id="clip1_1_884">
<rect width="69.083" height="67" fill="white" transform="matrix(1 1.74846e-07 1.74846e-07 -1 218.083 162)"/>
</clipPath>
</defs>
</svg>
