<svg width="92" height="79" viewBox="0 0 92 79" fill="none" xmlns="http://www.w3.org/2000/svg">
<g clip-path="url(#clip0_1525_46316)">
<path d="M19.411 12.73C34.1173 -1.67563 57.9663 -1.67563 72.6727 12.73L74.4471 14.4743C75.1689 15.1961 75.1689 16.369 74.4471 17.0908L68.4021 23.0154C68.0412 23.3763 67.4398 23.3763 67.0789 23.0154L64.6428 20.6396C54.3875 10.5947 37.7563 10.5947 27.4709 20.6396L24.8544 23.1959C24.4935 23.5568 23.8921 23.5568 23.5312 23.1959L17.4862 17.2712C16.7644 16.5494 16.7644 15.3765 17.4862 14.6548L19.4411 12.7601L19.411 12.73ZM85.2137 25.0004L90.597 30.2634C91.3188 30.9852 91.3188 32.1581 90.597 32.8798L66.2969 56.6687C65.5751 57.3905 64.3722 57.3905 63.6203 56.6687L46.3576 39.7669C46.1772 39.5864 45.8764 39.5864 45.696 39.7669L28.4333 56.6687C27.7115 57.3905 26.5085 57.3905 25.7567 56.6687L1.48665 32.8798C0.764866 32.1581 0.764866 30.9852 1.48665 30.2634L6.86996 25.0004C7.59175 24.2786 8.79472 24.2786 9.54658 25.0004L26.8093 41.9021C26.9897 42.0826 27.2905 42.0826 27.4709 41.9021L44.7336 25.0004C45.4554 24.2786 46.6584 24.2786 47.4102 25.0004L64.6729 41.9021C64.8534 42.0826 65.1541 42.0826 65.3345 41.9021L82.5972 25.0004C83.319 24.2786 84.522 24.2786 85.2738 25.0004H85.2137Z" fill="#3B99FC"/>
</g>
<defs>
<clipPath id="clip0_1525_46316">
<rect width="90.193" height="55.2767" fill="white" transform="translate(0.945312 1.93164)"/>
</clipPath>
</defs>
</svg>
