<svg width="17" height="17" viewBox="0 0 17 17" fill="none" xmlns="http://www.w3.org/2000/svg">
<path d="M10.9375 10.6435C11.3313 10.0323 12.2249 10.0323 12.6187 10.6435L14.0614 12.8826C14.4902 13.5481 14.0124 14.4242 13.2208 14.4242H10.3354C9.54377 14.4242 9.06601 13.5481 9.49477 12.8826L10.9375 10.6435Z" fill="#F8F8F8"/>
<path d="M7.4003 4.06855C7.77823 3.45179 8.66573 3.42791 9.07628 4.02346L10.5153 6.11097C10.7398 6.43656 10.7513 6.86383 10.5447 7.20102L6.41113 13.9467C6.22934 14.2434 5.90641 14.4242 5.55847 14.4242H2.84026C2.05879 14.4242 1.57931 13.5681 1.98761 12.9018L7.4003 4.06855Z" fill="#F8F8F8"/>
</svg>
