<svg xmlns="http://www.w3.org/2000/svg" width="48" height="37" viewBox="0 0 48 37" fill="none">
    <path d="M17.9991 22.4913C15.9387 22.4913 14.263 20.8266 14.263 18.7798C14.263 16.7329 15.9387 15.0682 17.9991 15.0682H40.3858V10.7017H17.9991C13.5316 10.7017 9.89648 14.3259 9.89648 18.7798C9.89648 23.2336 13.5316 26.8579 17.9991 26.8579H48V22.4913H17.9991Z" fill="#808080"/>
    <path d="M17.9683 0.805664C8.05899 0.805664 0 8.83737 0 18.7085C0 28.5796 8.05899 36.6113 17.9683 36.6113H47.9282V32.2447H17.9683C10.4688 32.2447 4.36654 26.1725 4.36654 18.7085C4.36654 11.2444 10.4688 5.1722 17.9683 5.1722H47.9282V0.805664H17.9683Z" fill="#808080"/>
    <path d="M45.4057 10.7017C44.1188 10.7017 43.0771 11.7433 43.0771 13.0303C43.0771 14.3172 44.1188 15.3589 45.4057 15.3589C46.6927 15.3589 47.7343 14.3172 47.7343 13.0303C47.7343 11.7433 46.6927 10.7017 45.4057 10.7017Z" fill="#808080"/>
</svg>