<svg width="24" height="24" viewBox="0 0 24 24" fill="none" xmlns="http://www.w3.org/2000/svg">
<circle cx="12" cy="12" r="12" fill="#F3523F"/>
<mask id="path-2-inside-1_4915_153264" fill="white">
<path fill-rule="evenodd" clip-rule="evenodd" d="M13.8548 14.0447C14.494 14.767 14.804 15.8246 15.0371 17.4449C15.0714 17.6833 15.4625 17.6831 15.4969 17.4448C15.7604 15.6212 16.1246 14.5057 16.9301 13.7926C17.7046 13.1068 18.8933 12.7876 20.8168 12.5552C21.0608 12.5258 21.0612 12.1168 20.8172 12.0875C18.6646 11.8288 17.4283 11.4586 16.6567 10.5857C16.0244 9.86901 15.7166 8.80422 15.4838 7.17859C15.4497 6.94042 15.062 6.94043 15.028 7.17861C14.8084 8.71582 14.5222 9.75117 13.9573 10.4646C13.6334 10.8768 13.2181 11.1843 12.6714 11.4226C12.6227 11.4438 12.5672 11.4438 12.5185 11.4226C12.0275 11.2085 11.6414 10.9385 11.3307 10.587C10.6983 9.87031 10.3905 8.80553 10.1578 7.1799C10.1237 6.94173 9.73598 6.94174 9.70196 7.17992C9.48237 8.71713 9.19619 9.75248 8.63131 10.4659C7.879 11.423 6.63433 11.8162 4.39388 12.0869C4.1498 12.1164 4.14884 12.5269 4.39292 12.5563C6.53219 12.8145 7.76792 13.1831 8.5288 14.046C9.16793 14.7683 9.47797 15.8259 9.71107 17.4462C9.74536 17.6846 10.1365 17.6844 10.1709 17.4461C10.4344 15.6225 10.7986 14.507 11.604 13.7939C11.8623 13.5652 12.1667 13.3773 12.529 13.2197C12.5777 13.1986 12.633 13.1986 12.6817 13.2198C13.1677 13.4317 13.5495 13.6984 13.8548 14.0447Z"/>
</mask>
<path d="M13.8548 14.0447L12.9547 14.8383L12.9562 14.8399L13.8548 14.0447ZM16.9301 13.7926L17.7256 14.691L16.9301 13.7926ZM16.6567 10.5857L15.7569 11.3796L15.7576 11.3804L16.6567 10.5857ZM13.9573 10.4646L13.0165 9.71974L13.0139 9.72305L13.9573 10.4646ZM11.3307 10.587L10.4309 11.3809L10.4316 11.3817L11.3307 10.587ZM8.63131 10.4659L7.69048 9.72105L7.68789 9.72435L8.63131 10.4659ZM8.5288 14.046L7.62871 14.8397L7.63013 14.8412L8.5288 14.046ZM11.604 13.7939L12.3995 14.6923L12.3995 14.6923L11.604 13.7939ZM12.529 13.2197L13.0075 14.3202L12.529 13.2197ZM12.6817 13.2198L13.1613 12.1198L12.6817 13.2198ZM9.71107 17.4462L8.5233 17.6171L9.71107 17.4462ZM10.1709 17.4461L8.98324 17.2745L10.1709 17.4461ZM10.1578 7.1799L11.3457 7.00983L10.1578 7.1799ZM9.70196 7.17992L8.51402 7.01022L9.70196 7.17992ZM12.6714 11.4226L13.1508 12.5227L12.6714 11.4226ZM12.5185 11.4226L12.998 10.3225L12.5185 11.4226ZM20.8172 12.0875L20.9604 10.896L20.8172 12.0875ZM15.4838 7.17859L16.6717 7.00852L15.4838 7.17859ZM15.028 7.17861L16.2159 7.3483L15.028 7.17861ZM4.39388 12.0869L4.53781 13.2782L4.39388 12.0869ZM4.39292 12.5563L4.53668 11.365L4.39292 12.5563ZM15.4969 17.4448L14.3093 17.2732L15.4969 17.4448ZM16.2249 17.274C15.9895 15.6381 15.6474 14.2597 14.7535 13.2495L12.9562 14.8399C13.3405 15.2742 13.6185 16.0111 13.8493 17.6158L16.2249 17.274ZM16.1346 12.8942C14.9771 13.919 14.5748 15.4357 14.3093 17.2732L16.6846 17.6164C16.9461 15.8066 17.2722 15.0924 17.7256 14.691L16.1346 12.8942ZM20.6729 11.3639C18.7564 11.5955 17.2165 11.9362 16.1346 12.8942L17.7256 14.691C18.1927 14.2774 19.0303 13.9798 20.9608 13.7466L20.6729 11.3639ZM15.7576 11.3804C16.8596 12.6272 18.532 13.0215 20.674 13.2789L20.9604 10.896C18.7971 10.6361 17.997 10.2901 17.5558 9.79094L15.7576 11.3804ZM14.2959 7.34866C14.5302 8.98456 14.8689 10.3732 15.7569 11.3796L17.5565 9.79171C17.1799 9.36484 16.903 8.62388 16.6717 7.00852L14.2959 7.34866ZM14.8981 11.2095C15.6795 10.2226 15.9945 8.89812 16.2159 7.3483L13.84 7.00891C13.6223 8.53353 13.3649 9.27972 13.0165 9.71975L14.8981 11.2095ZM13.1508 12.5227C13.8509 12.2176 14.4363 11.7971 14.9008 11.2062L13.0139 9.72305C12.8305 9.95637 12.5853 10.1511 12.192 10.3225L13.1508 12.5227ZM10.4316 11.3817C10.8756 11.8841 11.4135 12.2499 12.039 12.5226L12.998 10.3225C12.6416 10.1672 12.4072 9.99298 12.2298 9.79224L10.4316 11.3817ZM8.96992 7.34997C9.20413 8.98587 9.54285 10.3745 10.4309 11.3809L12.2305 9.79302C11.8538 9.36615 11.577 8.62518 11.3457 7.00983L8.96992 7.34997ZM9.57212 11.2108C10.3535 10.2239 10.6685 8.89942 10.8899 7.34961L8.51402 7.01022C8.29623 8.53484 8.03888 9.28103 7.69049 9.72106L9.57212 11.2108ZM4.53781 13.2782C6.76609 13.009 8.48836 12.5896 9.57473 11.2075L7.68789 9.72435C7.26965 10.2564 6.50257 10.6234 4.24995 10.8955L4.53781 13.2782ZM9.42888 13.2524C8.33668 12.0137 6.6617 11.6214 4.53668 11.365L4.24917 13.7477C6.40268 14.0075 7.19917 14.3525 7.62871 14.8396L9.42888 13.2524ZM10.8988 17.2753C10.6635 15.6394 10.3214 14.261 9.42747 13.2508L7.63013 14.8412C8.01445 15.2756 8.29245 16.0124 8.5233 17.6171L10.8988 17.2753ZM10.8085 12.8955C9.65105 13.9203 9.24873 15.437 8.98324 17.2745L11.3586 17.6177C11.6201 15.8079 11.9462 15.0937 12.3995 14.6923L10.8085 12.8955ZM12.0505 12.1193C11.5919 12.3187 11.1758 12.5703 10.8085 12.8955L12.3995 14.6923C12.5489 14.5601 12.7415 14.4359 13.0075 14.3202L12.0505 12.1193ZM14.7549 13.2511C14.3152 12.7524 13.7807 12.3899 13.1613 12.1198L12.2021 14.3198C12.5547 14.4736 12.7838 14.6445 12.9547 14.8383L14.7549 13.2511ZM13.0075 14.3202C12.7503 14.432 12.4586 14.4317 12.2021 14.3198L13.1613 12.1198C12.8075 11.9656 12.405 11.9651 12.0505 12.1193L13.0075 14.3202ZM8.5233 17.6171C8.65308 18.5192 9.45528 18.8251 9.94128 18.8249C10.4272 18.8248 11.2284 18.5188 11.3586 17.6177L8.98324 17.2745C9.079 16.6117 9.6674 16.425 9.94059 16.4249C10.2139 16.4248 10.8034 16.6116 10.8988 17.2753L8.5233 17.6171ZM11.3457 7.00983C11.2174 6.11364 10.4228 5.80127 9.92983 5.80128C9.43686 5.80129 8.64208 6.11378 8.51402 7.01022L10.8899 7.34961C10.7959 8.00788 10.212 8.20127 9.92988 8.20128C9.64783 8.20129 9.06413 8.008 8.96992 7.34997L11.3457 7.00983ZM12.192 10.3225C12.449 10.2105 12.741 10.2105 12.998 10.3225L12.039 12.5226C12.3934 12.6771 12.7963 12.6771 13.1508 12.5227L12.192 10.3225ZM20.9608 13.7466C21.8992 13.6332 22.1996 12.795 22.2 12.3223C22.2004 11.8496 21.9008 11.0091 20.9604 10.896L20.674 13.2789C19.9776 13.1952 19.7998 12.5738 19.8 12.3203C19.8002 12.0668 19.9785 11.4478 20.6729 11.3639L20.9608 13.7466ZM16.6717 7.00852C16.5434 6.11233 15.7488 5.79996 15.2559 5.79997C14.7629 5.79998 13.9681 6.11247 13.84 7.00891L16.2159 7.3483C16.1219 8.00657 15.538 8.19996 15.2559 8.19997C14.9739 8.19998 14.3902 8.00669 14.2959 7.34866L16.6717 7.00852ZM4.24995 10.8955C3.30995 11.0091 3.01137 11.8494 3.01034 12.319C3.00932 12.7888 3.30544 13.6338 4.24917 13.7477L4.53668 11.365C4.83771 11.4013 5.08589 11.5699 5.23608 11.7826C5.37061 11.9731 5.41067 12.1705 5.41034 12.3242C5.40979 12.5739 5.23374 13.1941 4.53781 13.2782L4.24995 10.8955ZM13.8493 17.6158C13.9791 18.5179 14.7813 18.8237 15.2673 18.8236C15.7532 18.8235 16.5544 18.5175 16.6846 17.6164L14.3093 17.2732C14.405 16.6104 14.9934 16.4237 15.2666 16.4236C15.5399 16.4235 16.1294 16.6103 16.2249 17.274L13.8493 17.6158Z" fill="#F8F8F8" mask="url(#path-2-inside-1_4915_153264)"/>
</svg>
