<svg width="24" height="24" viewBox="0 0 24 24" fill="none" xmlns="http://www.w3.org/2000/svg">
<circle cx="12" cy="12" r="12" fill="#F3523F"/>
<path d="M7.43797 9.40026L11.438 11.349C11.7818 11.5165 12 11.8655 12 12.248V16.4669C12 17.1844 11.2668 17.6684 10.607 17.3865L6.60703 15.6771C6.23884 15.5197 6 15.1579 6 14.7575V10.2992C6 9.56036 6.77372 9.07665 7.43797 9.40026Z" stroke="#F8F8F8" stroke-width="1.3"/>
<path d="M16.562 9.40026L12.562 11.349C12.2182 11.5165 12 11.8655 12 12.248V16.4669C12 17.1844 12.7332 17.6684 13.393 17.3865L17.393 15.6771C17.7612 15.5197 18 15.1579 18 14.7575V10.2992C18 9.56036 17.2263 9.07665 16.562 9.40026Z" stroke="#F8F8F8" stroke-width="1.3"/>
<path d="M12 6V11.641M12 6L6 8.71795M12 6L18 8.71795M12 11.641L6 8.71795M12 11.641L18 8.71795M12 11.641V18M6 8.71795V14.7758C6 15.1762 6.23884 15.538 6.60703 15.6953L12 18M18 8.71795V14.7758C18 15.1762 17.7612 15.538 17.393 15.6953L12 18" stroke="#F8F8F8" stroke-width="1.3"/>
</svg>
