<svg width="25" height="25" viewBox="0 0 25 25" fill="none" xmlns="http://www.w3.org/2000/svg">
<path d="M18.9272 6.80076C17.78 6.27435 16.5497 5.88651 15.2634 5.66438C15.24 5.6601 15.2166 5.67081 15.2045 5.69224C15.0463 5.97365 14.871 6.34077 14.7483 6.62933C13.3648 6.4222 11.9883 6.4222 10.6332 6.62933C10.5104 6.33436 10.3288 5.97365 10.1699 5.69224C10.1578 5.67153 10.1344 5.66081 10.111 5.66438C8.82539 5.8858 7.59512 6.27364 6.44715 6.80076C6.43722 6.80505 6.4287 6.8122 6.42304 6.82147C4.0895 10.3077 3.45024 13.7083 3.76384 17.0667C3.76526 17.0832 3.77448 17.0989 3.78725 17.1089C5.32686 18.2395 6.81823 18.9259 8.28191 19.3809C8.30534 19.3881 8.33016 19.3795 8.34506 19.3602C8.6913 18.8874 8.99993 18.3888 9.26456 17.8645C9.28018 17.8338 9.26527 17.7974 9.23335 17.7853C8.7438 17.5996 8.27765 17.3731 7.82925 17.116C7.79378 17.0953 7.79094 17.0446 7.82357 17.0203C7.91793 16.9496 8.01232 16.876 8.10242 16.8017C8.11872 16.7882 8.14144 16.7853 8.1606 16.7939C11.1064 18.1388 14.2956 18.1388 17.2067 16.7939C17.2258 16.7846 17.2485 16.7875 17.2656 16.801C17.3557 16.8753 17.45 16.9496 17.5451 17.0203C17.5777 17.0446 17.5756 17.0953 17.5401 17.116C17.0917 17.3781 16.6256 17.5996 16.1353 17.7846C16.1034 17.7967 16.0892 17.8338 16.1048 17.8645C16.3751 18.3881 16.6838 18.8866 17.0236 19.3595C17.0378 19.3795 17.0634 19.3881 17.0868 19.3809C18.5576 18.9259 20.0489 18.2395 21.5885 17.1089C21.602 17.0989 21.6105 17.0839 21.6119 17.0675C21.9873 13.1848 20.9833 9.81206 18.9506 6.82218C18.9456 6.8122 18.9372 6.80505 18.9272 6.80076ZM9.70447 15.0218C8.81758 15.0218 8.0868 14.2076 8.0868 13.2076C8.0868 12.2077 8.80341 11.3934 9.70447 11.3934C10.6126 11.3934 11.3363 12.2148 11.3221 13.2076C11.3221 14.2076 10.6055 15.0218 9.70447 15.0218ZM15.6855 15.0218C14.7986 15.0218 14.0679 14.2076 14.0679 13.2076C14.0679 12.2077 14.7845 11.3934 15.6855 11.3934C16.5937 11.3934 17.3174 12.2148 17.3032 13.2076C17.3032 14.2076 16.5937 15.0218 15.6855 15.0218Z" fill="#F3523F"/>
</svg>
