<svg width="25" height="25" viewBox="0 0 25 25" fill="none" xmlns="http://www.w3.org/2000/svg">
<path d="M13.9706 12.5233C13.9706 15.6599 11.4452 18.2027 8.32994 18.2027C5.21464 18.2027 2.68945 15.6607 2.68945 12.5233C2.68945 9.38601 5.21483 6.84416 8.32994 6.84416C11.4451 6.84416 13.9706 9.38678 13.9706 12.5233ZM20.1585 12.5233C20.1585 15.476 18.8957 17.8694 17.3382 17.8694C15.7806 17.8694 14.5178 15.4753 14.5178 12.5233C14.5178 9.57142 15.7806 7.17724 17.3382 7.17724C18.8957 7.17724 20.1585 9.57142 20.1585 12.5233ZM22.6895 12.5233C22.6895 15.1688 22.2453 17.3132 21.6975 17.3132C21.1497 17.3132 20.7055 15.168 20.7055 12.5233C20.7055 9.87864 21.1497 7.73346 21.6977 7.73346C22.2457 7.73346 22.6895 9.87806 22.6895 12.5233Z" fill="#F3523F"/>
</svg>
