<svg width="28" height="28" viewBox="0 0 28 28" fill="none" xmlns="http://www.w3.org/2000/svg">
<path d="M13.6693 5.79256H16.3359H20.3359V3.1259H16.3359L13.6693 3.12622L9.66927 3.1259V5.79256H13.6693ZM8.33594 21.7926C6.86927 21.7926 5.6826 22.9926 5.6826 24.4592C5.6826 25.9259 6.86927 27.1259 8.33594 27.1259C9.8026 27.1259 11.0026 25.9259 11.0026 24.4592C11.0026 22.9926 9.8026 21.7926 8.33594 21.7926ZM21.6693 21.7926C20.2026 21.7926 19.0159 22.9926 19.0159 24.4592C19.0159 25.9259 20.2026 27.1259 21.6693 27.1259C23.1359 27.1259 24.3359 25.9259 24.3359 24.4592C24.3359 22.9926 23.1359 21.7926 21.6693 21.7926ZM9.8026 15.1259H19.7359C20.7359 15.1259 21.6159 14.5792 22.0693 13.7526L27.2159 4.4059L24.8959 3.1259L19.7359 12.4592H10.3759L4.69594 0.459229H0.335938V3.1259H3.0026L7.8026 13.2459L3.82927 20.4592H24.3359V17.7926H8.33594L9.8026 15.1259Z" fill="#F3523F"/>
</svg>
