<svg width="25" height="25" viewBox="0 0 25 25" fill="none" xmlns="http://www.w3.org/2000/svg">
<path d="M20.6419 8.44351C20.6541 8.61983 20.6541 8.79614 20.6541 8.97408C20.6541 14.396 16.5265 20.6491 8.97911 20.6491V20.6458C6.74958 20.6491 4.56636 20.0104 2.68945 18.8063C3.01365 18.8453 3.33946 18.8648 3.66609 18.8656C5.51375 18.8672 7.30859 18.2473 8.76217 17.1057C7.00633 17.0724 5.46662 15.9276 4.92874 14.2562C5.54381 14.3749 6.17757 14.3505 6.78127 14.1855C4.86699 13.7988 3.48978 12.1169 3.48978 10.1636C3.48978 10.1457 3.48978 10.1287 3.48978 10.1116C4.06016 10.4293 4.6988 10.6056 5.35206 10.6251C3.54909 9.42015 2.99333 7.02161 4.0821 5.14633C6.16538 7.70981 9.23912 9.26821 12.5387 9.43315C12.208 8.008 12.6598 6.51461 13.7258 5.51278C15.3785 3.95925 17.9777 4.03888 19.5312 5.69072C20.4502 5.50953 21.3309 5.17233 22.1369 4.69458C21.8306 5.6444 21.1896 6.45123 20.3332 6.96392C21.1465 6.86805 21.9411 6.65029 22.6895 6.31798C22.1386 7.14349 21.4447 7.86256 20.6419 8.44351Z" fill="#F3523F"/>
</svg>
