<svg width="24" height="24" viewBox="0 0 24 24" fill="none" xmlns="http://www.w3.org/2000/svg">
<circle cx="12" cy="12" r="12" fill="#F3523F"/>
<g clip-path="url(#clip0_4915_153249)">
<path d="M9.27734 16.2778C8.63568 16.2778 8.11651 16.8028 8.11651 17.4444C8.11651 18.0861 8.63568 18.6111 9.27734 18.6111C9.91901 18.6111 10.444 18.0861 10.444 17.4444C10.444 16.8028 9.91901 16.2778 9.27734 16.2778ZM15.1107 16.2778C14.469 16.2778 13.9498 16.8028 13.9498 17.4444C13.9498 18.0861 14.469 18.6111 15.1107 18.6111C15.7523 18.6111 16.2773 18.0861 16.2773 17.4444C16.2773 16.8028 15.7523 16.2778 15.1107 16.2778ZM9.91901 13.3611H14.2648C14.7023 13.3611 15.0873 13.1219 15.2857 12.7603L17.5373 8.67111L16.5223 8.11111L14.2648 12.1944H10.1698L7.68484 6.94444H5.77734V8.11111H6.94401L9.04401 12.5386L7.30568 15.6944H16.2773V14.5278H9.27734L9.91901 13.3611Z" fill="#F8F8F8"/>
<path d="M12.1927 5.77778L9.85938 8.03475H11.6094V10.4444H12.776V8.03475H14.526L12.1927 5.77778Z" fill="#F8F8F8"/>
</g>
<defs>
<clipPath id="clip0_4915_153249">
<rect width="14" height="14" fill="white" transform="translate(5 5)"/>
</clipPath>
</defs>
</svg>
