<svg width="1254" height="438" viewBox="0 0 1254 438" fill="none" xmlns="http://www.w3.org/2000/svg">
<path opacity="0.4" d="M1.18286 232.385V444.469H1409.15L1409.15 169.286M2.26069 386.485L122.522 369.908M122.522 369.908L247.126 352.715M122.522 369.908L164.862 372.243M122.522 369.908L81.3827 367.618M247.126 352.715L348.275 314.336M247.126 352.715L286.49 354.59M247.126 352.715L208.764 350.902M348.275 314.336L433.226 193.207M348.275 314.336L313.01 296.868M348.275 314.336L384.345 337.321M433.226 193.207L466.867 209.355M433.226 193.207L502.511 137.774M433.226 193.207L400.239 182.637M87.5157 281.442L88.5632 280.766L184.232 218.634M184.232 218.634L155.191 233.706L126.576 249.931L97.4287 264.404L95.6829 265.279L73.5646 276.265L70.4829 277.786L60.3118 282.84L52.8429 286.543M184.232 218.634L196.771 212.904M632.701 225.302L572.403 297.528M632.701 225.302L667.162 262.222M632.701 225.302L683.056 212.704M632.701 225.302L599.091 193.161M572.403 297.528L499.703 345.172M572.403 297.528L609.444 334.048M572.403 297.528L536.38 261.024M499.703 345.172L411.002 360.49M499.703 345.172L460.294 343.543M499.703 345.172L540.084 346.846M411.002 360.49L299.682 379.71M411.002 360.49L454.798 362.564M411.002 360.49L368.39 358.462M299.682 379.71L155.768 404.553M299.682 379.71L347.41 382.352M299.682 379.71L253.38 377.144M155.768 404.553L2.26069 431.071M155.768 404.553L208.035 408.041M155.768 404.553L105.308 401.204M531.203 131.475L472.211 130.661M531.203 131.475L560.456 135.946M531.203 131.475L489.577 131.245L471.907 130.876L441.06 129.447M472.211 130.661L400.239 182.637M472.211 130.661L502.511 137.774M472.211 130.661L441.06 129.447M400.239 182.637L313.01 296.868M400.239 182.637L367.858 177.029M313.01 296.868L208.764 350.902M313.01 296.868L278.474 284.3M208.764 350.902L81.3827 367.618M208.764 350.902L171.359 349.136M81.3827 367.618L2.26069 378.004M81.3827 367.618L41.3966 365.406M381.521 138.573L374.735 142.107L371.866 143.612L304.737 178.565M381.521 138.573L411.078 132.09M381.521 138.573L369.513 142.629M304.737 178.565L336.039 175.861M304.737 178.565L273.935 184.68M304.737 178.565L211.421 271.732M211.421 271.732L99.8728 334.033M211.421 271.732L244.621 276.096M211.421 271.732L178.828 270.749M99.8728 334.033L2.26069 342.068M99.8728 334.033L65.7617 321.373M99.8728 334.033L134.895 347.399M810.771 92.6965L790.475 162.787L789.7 165.491M810.771 92.6965L829.611 88.9323M810.771 92.6965L792.129 98.8113M810.771 92.6965L811.743 89.9463L829.96 38.0931M789.7 165.491L767.096 234.705L766.261 237.302M789.7 165.491L809.435 163.57M789.7 165.491L770.178 169.777M766.261 237.302L751.718 259.779M766.261 237.302L786.953 237.24M766.261 237.302L745.798 239.714M751.718 259.779L756.682 264.649M751.718 259.779L742.079 250.361L739.756 248.102M866.242 30.3497L848.693 87.8569M866.242 30.3497L884.717 30.6416M866.242 30.3497L847.995 32.9462M866.242 30.3497L882.576 2.09547M848.693 87.8569L829.429 164.4M848.693 87.8569L829.611 88.9323M848.693 87.8569L868.003 89.8388M829.429 164.4L807.917 239.914M829.429 164.4L849.679 168.364M829.429 164.4L809.435 163.57M807.917 239.914L783.613 278.754M807.917 239.914L829.17 245.706M807.917 239.914L786.953 237.24M783.613 278.754L781.913 278.723M783.613 278.754L805.822 279.184M783.613 278.754L782.292 278.938M590.226 145.717L534.072 149.881M590.226 145.717L620.526 161.404M590.226 145.717L560.456 135.946M534.072 149.881L466.867 209.355M534.072 149.881L566.24 168.118M534.072 149.881L502.511 137.774M466.867 209.355L384.345 337.321M466.867 209.355L501.236 231.74M384.345 337.321L286.49 354.59M384.345 337.321L421.826 341.945M286.49 354.59L164.862 372.243M286.49 354.59L326.901 356.495M164.862 372.243L9.426 394.813M164.862 372.243L208.461 374.655M9.426 394.813L2.26069 395.857M9.426 394.813L56.547 397.947M9.426 394.813L2.26069 394.336M869.308 443.593L921.5 414.125M921.5 414.125L990.754 417.966M921.5 414.125L969.653 386.946M921.5 414.125L854.735 410.438M990.754 417.966L1062.67 421.945M990.754 417.966L954.715 443.593M990.754 417.966L1030.33 389.819M1062.67 421.945L1137.38 426.078M1062.67 421.945L1040.14 443.593M1062.67 421.945L1093.01 392.8M1137.38 426.078L1157.79 395.857M1137.38 426.078L1125.56 443.593M1137.38 426.078L1215.06 430.38M1157.79 395.857L1173.2 373.057M1157.79 395.857L1093.01 392.8M1157.79 395.857L1224.78 399.038M1173.2 373.057L1232.08 375.485M1173.2 373.057L1185.23 355.22M1173.2 373.057L1116.01 370.691M1232.08 375.485L1292.74 378.004M1232.08 375.485L1237.76 357.156M1232.08 375.485L1224.78 399.038M1292.74 378.004L1355.29 380.601M1292.74 378.004L1294.11 402.325M1292.74 378.004L1291.7 359.138M1355.29 380.601L1408.28 382.783M1355.29 380.601L1365.87 405.721M1355.29 380.601L1347.11 361.181M693.151 206.174L696.278 208.11L703.793 214.824M693.151 206.174L693.136 205.929M693.151 206.174L691.678 205.283M693.136 205.929L691.678 205.283M693.136 205.929L694.077 203.839M691.678 205.283L682.084 199.322M682.084 199.322L672.672 191.686M682.084 199.322L671.397 194.528L651.45 183.651M672.672 191.686L667.025 187.768L663.716 185.894M672.672 191.686L683.845 166.597M663.716 185.894L661.18 184.45M663.716 185.894L666.327 180.378M661.18 184.45L657.765 182.514L656.156 181.607M661.18 184.45L666.327 180.378M656.156 181.607L649.689 177.935M656.156 181.607L674.297 150.05L674.661 149.42M649.689 177.935L645.058 175.308M649.689 177.935L658.053 164.077M645.058 175.308L644.709 175.109M645.058 175.308L658.053 164.077M644.709 175.109L642.979 174.125M644.709 175.109L662.425 156.856L663.139 155.873M642.979 174.125L642.022 173.587M642.979 174.125L650.524 166.551M642.022 173.587L620.526 161.404M642.022 173.587L650.524 166.551M620.526 161.404L566.24 168.118M620.526 161.404L651.45 183.651M566.24 168.118L501.236 231.74M566.24 168.118L599.091 193.161M501.236 231.74L421.826 341.945M501.236 231.74L536.38 261.024M421.826 341.945L326.901 356.495M421.826 341.945L460.294 343.543M326.901 356.495L208.461 374.655M326.901 356.495L368.39 358.462M208.461 374.655L56.547 397.947M208.461 374.655L253.38 377.144M56.547 397.947L2.26069 406.274M56.547 397.947L105.308 401.204M54.786 283.178L4.49226 286.174M4.49226 286.174L2.26069 286.313M4.49226 286.174L23.7111 286.712M4.49226 286.174L2.26069 286.113M1408.29 301.723L1388.73 301.292M1388.73 301.292L1354.73 300.54M1388.73 301.292L1396.5 308.037M1388.73 301.292L1381.98 295.408M1354.73 300.54L1321.28 299.802M1354.73 300.54L1350.17 294.763M1354.73 300.54L1359.95 307.177M1321.28 299.802L1288.37 299.08M1321.28 299.802L1324.03 306.332M1321.28 299.802L1318.89 294.117M1288.37 299.08L1255.96 298.373M1288.37 299.08L1288.72 305.502M1288.37 299.08L1288.05 293.472M1255.96 298.373L1224.1 297.666M1255.96 298.373L1257.68 292.842M1255.96 298.373L1254.02 304.672M1224.1 297.666L1192.72 296.975M1224.1 297.666L1219.91 303.874M1224.1 297.666L1227.77 292.228M1192.72 296.975L1161.84 296.299M1192.72 296.975L1198.29 291.628M1192.72 296.975L1186.37 303.075M1161.84 296.299L1131.43 295.623M1161.84 296.299L1169.25 291.029M1161.84 296.299L1153.39 302.306M1131.43 295.623L1101.48 294.978M1131.43 295.623L1140.63 290.43M1131.43 295.623L1120.94 301.538M1101.48 294.978L1072 294.317M1101.48 294.978L1112.41 289.862M1101.48 294.978L1089.05 300.785M1072 294.317L1042.96 293.687M1072 294.317L1057.67 300.048M1072 294.317L1084.62 289.278M1042.96 293.687L1014.34 293.057M1042.96 293.687L1026.79 299.326M1042.96 293.687L1057.2 288.709M1014.34 293.057L986.17 292.443M1014.34 293.057L996.416 298.604M1014.34 293.057L1030.18 288.156M986.17 292.443L958.419 291.828M986.17 292.443L966.51 297.897M986.17 292.443L1003.54 287.603M958.419 291.828L931.063 291.229M958.419 291.828L937.09 297.206M958.419 291.828L977.274 287.065M931.063 291.229L908.11 296.53M931.063 291.229L951.36 286.528M931.063 291.229L904.102 290.63M908.11 296.53L879.601 295.854M908.11 296.53L881.969 302.568M908.11 296.53L937.09 297.206M879.601 295.854L851.699 301.784M879.601 295.854L904.102 290.63M879.601 295.854L851.516 295.193M851.699 301.784L819.667 308.621M851.699 301.784L821.929 301.031L789.199 296.683L756.682 264.649M851.699 301.784L881.969 302.568M819.667 308.621L782.49 316.533M819.667 308.621L851.911 309.497M819.667 308.621L789.776 297.252L787.909 296.545M782.49 316.533L738.845 325.829M782.49 316.533L816.995 317.563M782.49 316.533L748.53 282.057M738.845 325.829L702.548 302.706M738.845 325.829L686.866 336.906M738.845 325.829L775.916 327.058M702.548 302.706L667.162 262.222M702.548 302.706L748.53 282.057M702.548 302.706L647.715 335.462M667.162 262.222L609.444 334.048M667.162 262.222L715.391 245.89M441.06 129.447L411.078 132.09M441.06 129.447L367.858 177.029M726.154 234.797L728.279 236.856M726.154 234.797L715.452 225.226M726.154 234.797L683.056 212.704M683.056 212.704L678.304 208.325L651.45 183.651M683.056 212.704L715.391 245.89M651.45 183.651L599.091 193.161M599.091 193.161L536.38 261.024M536.38 261.024L460.294 343.543M460.294 343.543L368.39 358.462M368.39 358.462L253.38 377.144M253.38 377.144L105.308 401.204M105.308 401.204L2.26069 417.935M2.26069 281.611L19.3997 280.659M19.3997 280.659L65.8528 278.047M19.3997 280.659L37.313 281.104M19.3997 280.659L2.26069 280.213M1093.01 392.8L1116.01 370.691M1093.01 392.8L1030.33 389.819M1224.78 399.038L1294.11 402.325M1224.78 399.038L1215.06 430.38M1294.11 402.325L1365.87 405.721M1294.11 402.325L1295.9 434.866M1365.87 405.721L1408.29 407.734M1365.87 405.721L1380.09 439.522M992.743 44.208L981.13 81.9571M992.743 44.208L1012.07 61.0314M992.743 44.208L973.706 29.6583M992.743 44.208L1004.1 40.0597M981.13 81.9571L968.909 149.789M981.13 81.9571L961.258 66.1323M981.13 81.9571L1001.29 99.6256M968.909 149.789L955.596 236.487M968.909 149.789L948.127 133.119M968.909 149.789L990.025 167.596M955.596 236.487L939.671 277.77M955.596 236.487L977.744 253.787M955.596 236.487L933.781 219.418M939.671 277.77L921.196 281.411M939.671 277.77L962.533 278.185M939.671 277.77L917.097 277.355M921.196 281.411L897.529 280.966M921.196 281.411L900.611 285.483M921.196 281.411L945.166 281.888M897.529 280.966L874.166 280.505M897.529 280.966L917.097 277.355M897.529 280.966L875.745 284.976M874.166 280.505L851.091 280.059M874.166 280.505L894.797 276.941M874.166 280.505L851.213 284.469M851.091 280.059L828.32 279.614M851.091 280.059L872.648 268.414M851.091 280.059L827.015 283.977M828.32 279.614L803.135 283.486M828.32 279.614L850.742 255.062M828.32 279.614L805.822 279.184M803.135 283.486L795.818 284.607M803.135 283.486L827.015 283.977M803.135 283.486L792.008 283.255M698.464 443.593L704.688 441.104M704.688 441.104L742.048 443.593M704.688 441.104L790.353 406.873M704.688 441.104L633.734 436.387M894.797 276.941L912.27 202.794M894.797 276.941L917.097 277.355M894.797 276.941L872.648 268.414M912.27 202.794L927.633 117.847M912.27 202.794L933.781 219.418M912.27 202.794L891.062 187.354M927.633 117.847L941.69 52.443M927.633 117.847L907.442 104.573M927.633 117.847L948.127 133.119M941.69 52.443L954.943 17.6898M941.69 52.443L922.411 41.4117M941.69 52.443L961.258 66.1323M954.943 17.6898L967.74 16.8756M954.943 17.6898L936.878 7.76476L932.43 5.70599L918.266 3.30922M954.943 17.6898L973.706 29.6583M527.636 443.593L565.618 431.84M565.618 431.84L668.224 400.113M565.618 431.84L633.734 436.387M565.618 431.84L500.174 427.492M668.224 400.113L745.16 376.314M668.224 400.113L728.219 403.432M668.224 400.113L610.249 396.902M745.16 376.314L804.988 357.801M745.16 376.314L798.718 378.849M745.16 376.314L693.181 373.856M804.988 357.801L852.852 343.005M804.988 357.801L757.927 355.865M804.988 357.801L853.323 359.814M852.852 343.005L892.004 330.899M852.852 343.005L809.876 341.423M852.852 343.005L896.877 344.619M892.004 330.899L932.415 332.235M892.004 330.899L852.473 329.593M892.004 330.899L924.642 320.805M932.415 332.235L973.721 333.603M932.415 332.235L896.877 344.619M932.415 332.235L961.971 321.926M973.721 333.603L1015.95 335.001M973.721 333.603L941.978 346.278M973.721 333.603L1000.06 323.063M1015.95 335.001L1038.94 324.231M1015.95 335.001L988.204 347.983M1015.95 335.001L1059.16 336.43M1038.94 324.231L1058.29 315.181M1038.94 324.231L1078.64 325.429M1038.94 324.231L1000.06 323.063M1058.29 315.181L1095 316.195M1058.29 315.181L1074.79 307.453M1058.29 315.181L1022.27 314.198M1095 316.195L1132.41 317.225M1095 316.195L1108.94 308.329M1095 316.195L1078.64 325.429M1132.41 317.225L1170.55 318.269M1132.41 317.225L1143.68 309.205M1132.41 317.225L1119.15 326.643M1170.55 318.269L1209.46 319.345M1170.55 318.269L1179.06 310.111M1170.55 318.269L1160.55 327.887M1209.46 319.345L1249.13 320.436M1209.46 319.345L1215.08 311.018M1209.46 319.345L1202.83 329.163M1249.13 320.436L1289.6 321.557M1249.13 320.436L1251.77 311.955M1249.13 320.436L1246.03 330.453M1289.6 321.557L1330.91 322.694M1289.6 321.557L1290.18 331.79M1289.6 321.557L1289.13 312.907M1330.91 322.694L1373.05 323.847M1330.91 322.694L1335.31 333.142M1330.91 322.694L1327.19 313.875M1373.05 323.847L1408.29 324.815M1373.05 323.847L1365.99 314.859M1373.05 323.847L1381.46 334.525M936.468 8.71732L922.411 41.4117M936.468 8.71732L918.266 3.30922M936.468 8.71732L949.963 9.70061M922.411 41.4117L907.442 104.573M922.411 41.4117L903.435 34.2061M907.442 104.573L891.062 187.354M907.442 104.573L887.571 95.2776M891.062 187.354L872.648 268.414M891.062 187.354L870.204 175.861M872.648 268.414L850.742 255.062M827.015 283.977L851.213 284.469M827.015 283.977L804.411 287.649M918.266 3.30922L903.435 34.2061M918.266 3.30922L900.307 1.21973M903.435 34.2061L887.571 95.2776M903.435 34.2061L884.717 30.6416M887.571 95.2776L870.204 175.861M887.571 95.2776L868.003 89.8388M870.204 175.861L850.742 255.062M870.204 175.861L849.679 168.364M850.742 255.062L829.17 245.706M805.822 279.184L787.879 281.78M805.822 279.184L829.17 245.706M683.845 166.597L701.516 153.061M683.845 166.597L684.377 165.583L708.225 119.737M683.845 166.597L666.327 180.378M701.516 153.061L682.433 198.477M701.516 153.061L719.323 140.048M701.516 153.061L725.198 105.187M725.198 105.187L727.399 102.606L746.906 79.8523M725.198 105.187L708.225 119.737M725.198 105.187L742.291 91.1447M746.906 79.8523L730.556 94.3712L730.526 94.3865L714.328 109.136L713.068 110.426M746.906 79.8523L763.377 65.825M900.307 1.21973L884.717 30.6416M900.307 1.21973L882.576 2.09547M884.717 30.6416L868.003 89.8388M868.003 89.8388L849.679 168.364M849.679 168.364L829.17 245.706M719.323 140.048L720.097 138.404L742.291 91.1447M719.323 140.048L694.639 202.41L694.077 203.839M719.323 140.048L737.281 127.834M742.291 91.1447L759.521 77.8857M742.291 91.1447L763.377 65.825M763.377 65.825L779.954 52.5198M703.793 214.824L712.825 193.422M703.793 214.824L715.452 225.226M712.825 193.422L694.077 203.839M712.825 193.422L731.756 184.066M712.825 193.422L737.281 127.834M737.281 127.834L738.132 125.913L759.521 77.8857M737.281 127.834L755.392 116.68M759.521 77.8857L776.903 65.6714M759.521 77.8857L779.954 52.5198M779.954 52.5198L796.684 40.1673M715.452 225.226L731.756 184.066M731.756 184.066L755.392 116.68M731.756 184.066L750.868 176.076M755.392 116.68L756.303 114.529L776.903 65.6714M755.392 116.68L773.67 106.908M776.903 65.6714L794.422 54.763M776.903 65.6714L796.684 40.1673M796.684 40.1673L813.534 29.0438M865.042 5.62917L847.995 32.9462M865.042 5.62917L847.706 11.4982M865.042 5.62917L882.576 2.09547M847.995 32.9462L829.611 88.9323M847.995 32.9462L829.96 38.0931M829.611 88.9323L809.435 163.57M809.435 163.57L786.953 237.24M786.953 237.24L766.656 270.211M728.279 236.856L750.868 176.076M728.279 236.856L733.851 242.31M750.868 176.076L751.612 173.849L773.67 106.908M750.868 176.076L770.178 169.777M773.67 106.908L792.129 98.8113M773.67 106.908L794.422 54.763M794.422 54.763L812.107 45.4832M794.422 54.763L813.534 29.0438M813.534 29.0438L830.552 19.3952M658.053 164.077L674.661 149.42M658.053 164.077L679.17 141.584M674.661 149.42L691.375 134.563M674.661 149.42L675.359 148.667L695.929 126.236M691.375 134.563L708.225 119.737M691.375 134.563L691.284 134.748L666.661 179.748L666.327 180.378M691.375 134.563L692.893 132.888L713.068 110.426M708.225 119.737L730.526 94.4019M812.107 45.4832L829.96 38.0931M812.107 45.4832L793.086 96.2302L792.129 98.8113M812.107 45.4832L830.552 19.3952M829.96 38.0931L847.706 11.4982M847.706 11.4982L830.552 19.3952M694.077 203.839L691.967 205.114M792.129 98.8113L770.937 167.304L770.178 169.777M411.078 132.09L336.039 175.861M369.513 142.629L367.873 143.182M369.513 142.629L364.291 140.448M367.873 143.182L352.389 148.406L352.085 148.544L347.015 150.834M367.873 143.182L364.291 140.448M347.015 150.834L334.445 156.703L320.601 162.741M347.015 150.834L352.101 148.544M347.015 150.834L323.652 161.097L320.601 162.741M320.601 162.741L317.398 163.647L281.055 178.443L280.63 178.612L243.589 193.699M320.601 162.741L283.074 180.455L273.935 184.68M243.589 193.699L241.813 195.143L146.812 272.654M243.589 193.699L273.935 184.68M243.589 193.699L213.698 205.16M146.812 272.654L178.828 270.749M146.812 272.654L115.342 277.033M146.812 272.654L134.212 276.971L129.02 278.738L32.3641 311.801M32.3641 311.801L2.26069 307.668M32.3641 311.801L29.5708 311.217L2.26069 305.471M32.3641 311.801L65.7617 321.373M560.456 135.946L502.511 137.774M367.858 177.029L278.474 284.3M367.858 177.029L336.039 175.861M278.474 284.3L171.359 349.136M278.474 284.3L244.621 276.096M171.359 349.136L41.3966 365.406M171.359 349.136L134.895 347.399M41.3966 365.406L2.26069 370.307M41.3966 365.406L2.51877 363.255L2.26069 363.224M1215.06 430.38L1295.9 434.866M1215.06 430.38L1210.97 443.593M1295.9 434.866L1380.09 439.522M1295.9 434.866L1296.39 443.593M1380.09 439.522L1408.28 441.089M1380.09 439.522L1381.81 443.593M50.7176 285.053L23.7111 286.712M23.7111 286.712L2.26069 288.018M23.7111 286.712L43.2031 287.25M613.057 443.593L633.734 436.387M633.734 436.387L728.219 403.432M728.219 403.432L798.718 378.849M728.219 403.432L790.353 406.873M798.718 378.849L853.323 359.814M798.718 378.849L853.93 381.461M853.323 359.814L896.877 344.619M853.323 359.814L902.979 361.872M896.877 344.619L941.978 346.278M941.978 346.278L988.204 347.983M941.978 346.278L902.979 361.872M988.204 347.983L1035.6 349.719M988.204 347.983L954.017 363.977M1035.6 349.719L1084.19 351.517M1035.6 349.719L1059.16 336.43M1035.6 349.719L1006.5 366.159M1084.19 351.517L1103.36 337.889M1084.19 351.517L1060.46 368.387M1084.19 351.517L1134.06 353.345M1103.36 337.889L1119.15 326.643M1103.36 337.889L1059.16 336.43M1103.36 337.889L1148.6 339.38M1119.15 326.643L1160.55 327.887M1119.15 326.643L1078.64 325.429M1160.55 327.887L1202.83 329.163M1160.55 327.887L1148.6 339.38M1202.83 329.163L1246.03 330.453M1202.83 329.163L1194.89 340.916M1246.03 330.453L1290.18 331.79M1246.03 330.453L1242.3 342.483M1290.18 331.79L1335.31 333.142M1290.18 331.79L1290.86 344.081M1335.31 333.142L1381.46 334.525M1335.31 333.142L1340.61 345.725M1381.46 334.525L1408.29 335.339M1381.46 334.525L1391.59 347.415M356.792 443.593L437.249 423.297M437.249 423.297L554.187 393.798M437.249 423.297L500.174 427.492M437.249 423.297L376.693 419.272M554.187 393.798L642.736 371.459M554.187 393.798L610.249 396.902M554.187 393.798L499.961 390.803M642.736 371.459L712.097 353.96M642.736 371.459L693.181 373.856M642.736 371.459L593.717 369.139M712.097 353.96L767.916 339.887M712.097 353.96L667.435 352.116M712.097 353.96L757.927 355.865M767.916 339.887L813.792 328.302M767.916 339.887L726.913 338.381M767.916 339.887L809.876 341.423M813.792 328.302L852.169 318.623M813.792 328.302L775.916 327.058M813.792 328.302L852.473 329.593M852.169 318.623L884.747 310.403M852.169 318.623L888.041 319.698M852.169 318.623L816.995 317.563M884.747 310.403L912.755 303.336M884.747 310.403L918.19 311.325M884.747 310.403L851.911 309.497M912.755 303.336L937.09 297.206M912.755 303.336L881.969 302.568M912.755 303.336L944.058 304.135M937.09 297.206L966.51 297.897M977.274 287.065L1003.54 287.603M977.274 287.065L994.063 282.84M977.274 287.065L951.36 286.528M1003.54 287.603L1030.18 288.156M1003.54 287.603L1018.99 283.317M1030.18 288.156L1057.2 288.709M1030.18 288.156L1044.25 283.808M1057.2 288.709L1084.62 289.278M1057.2 288.709L1069.86 284.3M1084.62 289.278L1112.41 289.862M1084.62 289.278L1095.8 284.807M1112.41 289.862L1140.63 290.43M1112.41 289.862L1122.11 285.314M1140.63 290.43L1169.25 291.029M1140.63 290.43L1148.77 285.836M1169.25 291.029L1198.29 291.628M1169.25 291.029L1175.81 286.359M1198.29 291.628L1227.77 292.228M1198.29 291.628L1203.22 286.896M1227.77 292.228L1257.68 292.842M1227.77 292.228L1231.02 287.434M1257.68 292.842L1288.05 293.472M1257.68 292.842L1259.19 287.972M1288.05 293.472L1318.89 294.117M1288.05 293.472L1287.77 288.525M1318.89 294.117L1350.17 294.763M1318.89 294.117L1316.78 289.093M1350.17 294.763L1381.98 295.408M1350.17 294.763L1346.18 289.662M1381.98 295.408L1408.28 295.961M1381.98 295.408L1376.01 290.246M72.4109 275.02L49.0781 276.265M49.0781 276.265L32.3034 275.88M49.0781 276.265L2.26069 278.784M49.0781 276.265L66.0653 276.664M32.3034 275.88L16.8342 255.277M32.3034 275.88L92.0699 259.887M32.3034 275.88L2.26069 277.463M16.8342 255.277L2.26069 233.676M16.8342 255.277L2.26069 257.229M16.8342 255.277L77.0562 237.594M96.5938 263.712L92.0699 259.887M92.0699 259.887L77.0562 237.594M92.0699 259.887L146.751 236.134M77.0562 237.594L62.2246 216.484M77.0562 237.594L132.056 215.009M62.2246 216.484L2.26069 232.723M62.2246 216.484L117.513 195.097M1012.07 61.0314L1031.7 79.8062M1012.07 61.0314L1022.68 55.3929M1012.07 61.0314L1001.29 99.6256M1031.7 79.8062L1051.63 100.256M1031.7 79.8062L1021.77 118.83M1031.7 79.8062L1041.55 72.8156M1051.63 100.256L1071.86 122.072M1051.63 100.256L1042.55 139.311M1051.63 100.256L1060.71 92.0205M1071.86 122.072L1092.4 144.98M1071.86 122.072L1063.65 160.789M1071.86 122.072L1080.14 112.716M1092.4 144.98L1113.26 168.717M1092.4 144.98L1099.87 134.609M1092.4 144.98L1085.07 183.006M1113.26 168.717L1134.42 193.023M1113.26 168.717L1119.9 157.425M1113.26 168.717L1106.8 205.713M1134.42 193.023L1128.85 228.682M1134.42 193.023L1140.21 180.916M1134.42 193.023L1155.89 217.651M1155.89 217.651L1151.23 251.667M1155.89 217.651L1160.81 204.807M1155.89 217.651L1177.66 242.356M1177.66 242.356L1173.8 271.701M1177.66 242.356L1181.68 228.867M1177.66 242.356L1199.73 266.923M1173.8 271.701L1168.46 274.728M1173.8 271.701L1195.92 272.055M1173.8 271.701L1151.23 251.667M1168.46 274.728L1162.57 278.047M1168.46 274.728L1145.57 274.344M1168.46 274.728L1191.64 275.097M1162.57 278.047L1156.06 281.734M1162.57 278.047L1138.54 277.632M1162.57 278.047L1186.9 278.462M1156.06 281.734L1148.77 285.836M1156.06 281.734L1130.77 281.273M1156.06 281.734L1181.65 282.195M1148.77 285.836L1122.11 285.314M1148.77 285.836L1175.81 286.359M1120.94 301.538L1108.94 308.329M1120.94 301.538L1089.05 300.785M1120.94 301.538L1153.39 302.306M1108.94 308.329L1074.79 307.453M1108.94 308.329L1143.68 309.205M1078.64 325.429L1059.16 336.43M1006.5 366.159L969.653 386.946M1006.5 366.159L1060.46 368.387M1006.5 366.159L954.017 363.977M969.653 386.946L1030.33 389.819M969.653 386.946L910.873 384.165M854.735 410.438L790.353 406.873M854.735 410.438L783.886 443.593M854.735 410.438L910.873 384.165M790.353 406.873L853.93 381.461M610.249 396.902L500.174 427.492M610.249 396.902L693.181 373.856M499.961 390.803L447.481 387.883M499.961 390.803L376.693 419.272M499.961 390.803L593.717 369.139M447.481 387.883L396.656 385.072M447.481 387.883L318.399 415.385M447.481 387.883L546.11 366.881M396.656 385.072L347.41 382.352M396.656 385.072L262.216 411.651M396.656 385.072L499.809 364.684M347.41 382.352L208.035 408.041M347.41 382.352L454.798 362.564M62.346 279.675L37.313 281.104M37.313 281.104L2.26069 283.117M37.313 281.104L55.4692 281.565M117.513 195.097L132.056 215.009M117.513 195.097L168.019 173.572M132.056 215.009L146.751 236.134M132.056 215.009L182.243 192.531M146.751 236.134L147.692 237.547M146.751 236.134L170.387 225.026L174.198 223.228L196.62 212.689M1158.85 202.518L1159.2 196.265M1158.85 202.518L1154.54 197.54L1154.48 197.463M1158.85 202.518L1160.81 204.807M1159.2 196.265L1161.39 171.913M1159.2 196.265L1154.48 197.463M1159.2 196.265L1171.12 192.992M1161.39 171.913L1149.8 174.402M1161.39 171.913L1173.01 169.301M168.019 173.572L182.243 192.531M168.019 173.572L214.108 157.548M182.243 192.531L196.62 212.689M182.243 192.531L228.013 175.954M196.62 212.689L196.771 212.904M196.62 212.689L200.233 211.321M196.771 212.904L200.233 211.321M1170.02 215.423L1171.12 192.992M1170.02 215.423L1160.81 204.807M1170.02 215.423L1177.61 224.166M1171.12 192.992L1173.01 169.301M1171.12 192.992L1183.11 189.551M1173.01 169.301L1184.7 166.628M214.108 157.548L228.013 175.954M214.108 157.548L256.356 146.101M228.013 175.954L241.13 194.175M228.013 175.954L269.958 163.555M1181.32 228.437L1181.77 222.829M1181.32 228.437L1177.61 224.166M1181.32 228.437L1181.68 228.867M1181.77 222.829L1183.11 189.551M1181.77 222.829L1177.61 224.166M1181.77 222.829L1194.15 218.742M1183.11 189.551L1184.7 166.628M1183.11 189.551L1195.16 186.048M1184.7 166.628L1196.47 163.985M949.963 9.70061L967.74 16.8756M949.963 9.70061L937.288 6.81219M967.74 16.8756L985.775 27.1079M985.775 27.1079L1004.1 40.0597M985.775 27.1079L973.706 29.6583M1004.1 40.0597L1022.68 55.3929M256.356 146.101L269.958 163.555M256.356 146.101L295.279 137.544M269.958 163.555L280.873 178.181M269.958 163.555L308.623 153M1193.04 240.943L1194.15 218.742M1194.15 218.742L1195.16 186.048M1194.15 218.742L1206.59 214.655M1195.16 186.048L1196.47 163.985M1195.16 186.048L1207.28 182.575M1196.47 163.985L1208.31 161.435M851.213 284.469L825.542 288.909M851.213 284.469L875.745 284.976M825.542 288.909L806.794 288.494M825.542 288.909L851.349 289.462M825.542 288.909L813.732 290.937M1205.76 246.167L1206.59 214.655M1205.76 246.167L1218.83 246.29M1205.76 246.167L1197.9 246.105M1205.76 246.167L1203.59 247.196M1206.59 214.655L1207.28 182.575M1206.59 214.655L1219.12 210.63M1207.28 182.575L1208.31 161.435M1207.28 182.575L1219.47 179.211M1208.31 161.435L1220.21 159.069M295.279 137.544L308.623 153M295.279 137.544L331.151 135.193M308.623 153L316.988 163.14M308.623 153L344.267 147.991M1218.83 246.29L1219.12 210.63M1218.83 246.29L1231.26 246.935L1244.14 247.58M1218.83 246.29L1217.01 247.319M1219.12 210.63L1219.47 179.211M1219.12 210.63L1231.72 206.804M1219.47 179.211L1220.21 159.069M1219.47 179.211L1231.75 176.061M1220.21 159.069L1232.2 156.918M917.097 277.355L933.781 219.418M875.745 284.976L851.349 289.462M875.745 284.976L900.611 285.483M851.349 289.462L877.536 290.046M851.349 289.462L823.872 294.532M948.127 133.119L933.781 219.418M948.127 133.119L961.258 66.1323M990.025 167.596L1011.43 186.263M990.025 167.596L1001.29 99.6256M990.025 167.596L977.744 253.787M1011.43 186.263L1000.2 271.056M1011.43 186.263L1033.17 205.56M1011.43 186.263L1021.77 118.83M1000.2 271.056L985.669 278.615M1000.2 271.056L1022.65 275.619M1000.2 271.056L977.744 253.787M985.669 278.615L962.533 278.185M985.669 278.615L969.456 282.349M985.669 278.615L1009.09 279.045M962.533 278.185L977.744 253.787M962.533 278.185L945.166 281.888M745.798 239.714L733.851 242.31M745.798 239.714L746.618 237.348L770.178 169.777M745.798 239.714L739.756 248.102M733.851 242.31L739.756 248.102M1232.2 156.918L1231.75 176.061M1232.2 156.918L1244.27 155.059M1231.75 176.061L1231.72 206.804M1231.75 176.061L1244.11 173.173M1231.72 206.804L1231.98 246.412M1231.72 206.804L1244.41 203.24M1231.98 246.412L1230.53 247.442M1231.98 246.412L1245.21 246.535M1230.53 247.442L1217.01 247.319M1230.53 247.442L1228.99 248.533M1217.01 247.319L1203.59 247.196M1217.01 247.319L1215.08 248.41M1203.59 247.196L1198.87 247.15M1203.59 247.196L1201.28 248.272M1267.56 260.962L1249.04 260.732M1267.56 260.962L1268.15 259.072L1268.68 257.321L1269.2 255.677L1269.67 254.156L1270.11 252.727L1270.53 251.39L1270.91 250.131L1271.28 248.948L1271.63 247.826M1267.56 260.962L1266.92 263.005M1249.04 260.732L1230.69 260.501M1249.04 260.732L1247.67 262.76M1249.04 260.732L1250.3 258.857M1230.69 260.501L1222.28 260.394M1230.69 260.501L1232.61 258.642M1230.69 260.501L1228.59 262.498M961.258 66.1323L973.706 29.6583M1001.29 99.6256L1021.77 118.83M1021.77 118.83L1042.55 139.311M1042.55 139.311L1063.65 160.789M1042.55 139.311L1033.17 205.56M1063.65 160.789L1085.07 183.006M1063.65 160.789L1055.21 225.21M1085.07 183.006L1106.8 205.713M1085.07 183.006L1077.59 245.014M1106.8 205.713L1128.85 228.682M1106.8 205.713L1100.27 264.742M1128.85 228.682L1151.23 251.667M1128.85 228.682L1122.93 273.975M1151.23 251.667L1145.57 274.344M1145.57 274.344L1138.54 277.632M1145.57 274.344L1122.93 273.975M1138.54 277.632L1130.77 281.273M1138.54 277.632L1114.81 277.217M1130.77 281.273L1122.11 285.314M1130.77 281.273L1105.81 280.812M1122.11 285.314L1095.8 284.807M1089.05 300.785L1074.79 307.453M1089.05 300.785L1057.67 300.048M1074.79 307.453L1041.26 306.608M1022.27 314.198L986.929 313.215M1022.27 314.198L1000.06 323.063M1022.27 314.198L1041.26 306.608M986.929 313.215L952.241 312.262M986.929 313.215L961.971 321.926M986.929 313.215L1008.3 305.763M952.241 312.262L918.19 311.325M952.241 312.262L924.642 320.805M952.241 312.262L975.907 304.949M918.19 311.325L888.041 319.698M918.19 311.325L944.058 304.135M851.911 309.497L816.995 317.563M851.911 309.497L881.969 302.568M787.909 296.545L788.987 296.683L789.245 296.714M787.909 296.545L748.53 282.057M787.909 296.545L756.682 264.649M756.682 264.649L750.413 261.792L715.391 245.89M336.039 175.861L244.621 276.096M273.935 184.68L178.828 270.749M213.698 205.16L200.233 211.321M213.698 205.16L115.342 277.033M115.342 277.033L83.9179 284.1M115.342 277.033L95.2123 281.888L83.9179 284.1M83.9179 284.1L69.9668 287.972L2.26069 304.304M83.9179 284.1L62.5434 286.635L2.26069 295.393M331.151 135.193L344.267 147.991M331.151 135.193L364.291 140.448M344.267 147.991L346.894 150.695M344.267 147.991L352.07 148.544M1244.27 155.059L1244.11 173.173M1244.27 155.059L1256.42 153.538M1244.11 173.173L1244.41 203.24M1244.11 173.173L1256.55 170.638M1244.41 203.24L1245.21 246.535M1244.41 203.24L1257.18 200.013M1245.21 246.535L1244.14 247.58M1245.21 246.535L1258.39 243.37M1244.14 247.58L1257.46 248.256L1271.11 249.547L1285.66 250.284M1244.14 247.58L1242.98 248.671M650.524 166.551L663.139 155.873M663.139 155.873L666.312 152.862L679.17 141.584M679.17 141.584L682.206 138.589L695.929 126.236M695.929 126.236L698.206 123.947L713.068 110.426M1407.31 257.244L1389.54 257.044M1407.31 257.244L1408.28 257.259M1407.31 257.244L1403.06 255.615M1389.54 257.044L1371.9 256.845M1389.54 257.044L1385.89 255.431M1389.54 257.044L1393.44 258.78M1371.9 256.845L1354.42 256.645M1371.9 256.845L1368.89 255.247M1371.9 256.845L1375.15 258.565M1354.42 256.645L1337.1 256.46M1354.42 256.645L1352.01 255.062M1354.42 256.645L1357.02 258.35M1337.1 256.46L1319.9 256.261M1337.1 256.46L1339.05 258.15M1337.1 256.46L1335.28 254.878M1319.9 256.261L1318.67 254.694L1317.53 253.234L1313.59 248.225M1319.9 256.261L1321.22 257.935M1408.29 267.169L1390.89 266.939M1390.89 266.939L1369.59 266.631M1390.89 266.939L1386.47 264.588M1390.89 266.939L1395.7 269.489M1369.59 266.631L1348.49 266.355M1369.59 266.631L1373.41 269.166M1369.59 266.631L1366.05 264.311M1348.49 266.355L1327.61 266.063M1348.49 266.355L1351.37 268.859M1348.49 266.355L1345.83 264.05M1327.61 266.063L1306.95 265.786M1327.61 266.063L1325.82 263.789M1327.61 266.063L1329.57 268.537M1306.95 265.786L1286.49 265.494M1306.95 265.786L1307.99 268.229M1306.95 265.786L1306 263.528M1286.49 265.494L1266.25 265.218M1286.49 265.494L1286.63 267.922M1286.49 265.494L1286.37 263.267M1266.25 265.218L1246.2 264.941M1266.25 265.218L1266.92 263.005M1266.25 265.218L1265.49 267.63M1246.2 264.941L1226.34 264.665M1246.2 264.941L1244.59 267.323M1246.2 264.941L1247.67 262.76M1226.34 264.665L1221.62 262.406M1226.34 264.665L1228.59 262.498M1226.34 264.665L1223.88 267.031M1211.04 256.645L1217.49 256.722M1217.49 256.722L1234.4 256.921M1217.49 256.722L1215.5 258.135M1217.49 256.722L1219.74 255.124M1234.4 256.921L1251.48 257.121M1234.4 256.921L1236.07 255.308M1234.4 256.921L1232.61 258.642M1251.48 257.121L1250.3 258.857M1251.48 257.121L1252.58 255.493L1253.59 253.987L1254.55 252.558L1255.45 251.237L1256.3 249.992L1257.08 248.809L1257.84 247.703M1256.42 153.538L1256.55 170.638M1256.42 153.538L1268.67 152.385M1256.55 170.638L1257.18 200.013M1256.55 170.638L1269.08 168.487M1257.18 200.013L1258.39 243.37M1257.18 200.013L1270.06 197.217M1258.39 243.37L1257.84 247.703M1258.39 243.37L1271.64 239.96M1257.84 247.703L1271.46 248.394L1285.58 249.086M910.873 384.165L954.017 363.977M910.873 384.165L853.93 381.461M954.017 363.977L902.979 361.872M1148.6 339.38L1194.89 340.916M1148.6 339.38L1134.06 353.345M1194.89 340.916L1242.3 342.483M1194.89 340.916L1185.23 355.22M1242.3 342.483L1290.86 344.081M1242.3 342.483L1237.76 357.156M1290.86 344.081L1340.61 345.725M1290.86 344.081L1291.7 359.138M1340.61 345.725L1391.59 347.415M1340.61 345.725L1347.11 361.181M1391.59 347.415L1408.29 347.968M1391.59 347.415L1404.06 363.27M1268.67 152.385L1269.08 168.487M1268.67 152.385L1280.99 151.632M1269.08 168.487L1270.06 197.217M1269.08 168.487L1281.71 166.812M1270.06 197.217L1271.64 239.96M1270.06 197.217L1283.03 194.913M1271.64 239.96L1271.63 247.826M1271.64 239.96L1285 237.01M1271.63 247.826L1285.52 247.964M1266.92 263.005L1286.32 262.237L1304.72 260.486L1322.64 259.733M1266.92 263.005L1247.67 262.76M1265.49 267.63L1264.69 270.242M1265.49 267.63L1286.63 267.922M1265.49 267.63L1244.59 267.323M1264.69 270.242L1263.79 273.115M1264.69 270.242L1286.78 270.58M1264.69 270.242L1242.83 269.919M1263.79 273.115L1262.82 276.28M1263.79 273.115L1286.93 273.484M1263.79 273.115L1240.92 272.762M1262.82 276.28L1261.75 279.768M1262.82 276.28L1238.81 275.88M1262.82 276.28L1287.13 276.679M1261.75 279.768L1260.53 283.639M1261.75 279.768L1236.48 279.322M1261.75 279.768L1287.31 280.213M1260.53 283.639L1259.19 287.972M1260.53 283.639L1233.89 283.163M1260.53 283.639L1287.52 284.131M1259.19 287.972L1231.02 287.434M1259.19 287.972L1287.77 288.525M1254.02 304.672L1251.77 311.955M1254.02 304.672L1219.91 303.874M1254.02 304.672L1288.72 305.502M1251.77 311.955L1289.13 312.907M1251.77 311.955L1215.08 311.018M1237.76 357.156L1185.23 355.22M1237.76 357.156L1291.7 359.138M1204.79 253.449L1206.12 253.464M1206.12 253.464L1221.82 253.633M1206.12 253.464L1208.58 252.082M1221.82 253.633L1237.65 253.802M1221.82 253.633L1219.74 255.124M1221.82 253.633L1223.79 252.235M1237.65 253.802L1239.11 252.404L1240.49 251.083L1241.78 249.839L1242.98 248.671M1237.65 253.802L1236.07 255.308M1149.8 174.402L1148.24 190.227M1149.8 174.402L1138.28 176.66M1148.24 190.227L1140.21 180.916M1148.24 190.227L1154.48 197.463M100.541 443.593L262.216 411.651M262.216 411.651L318.399 415.385M262.216 411.651L208.035 408.041M499.809 364.684L581.466 348.552M499.809 364.684L546.11 366.881M499.809 364.684L454.798 362.564M581.466 348.552L647.715 335.462M581.466 348.552L540.084 346.846M581.466 348.552L623.912 350.303M647.715 335.462L686.866 336.906M647.715 335.462L609.444 334.048M686.866 336.906L726.913 338.381M686.866 336.906L623.912 350.303M726.913 338.381L667.435 352.116M726.913 338.381L775.916 327.058M809.876 341.423L757.927 355.865M809.876 341.423L852.473 329.593M961.971 321.926L1000.06 323.063M961.971 321.926L924.642 320.805M1008.3 305.763L1026.79 299.326M1008.3 305.763L975.907 304.949M1008.3 305.763L1041.26 306.608M1026.79 299.326L996.416 298.604M1026.79 299.326L1057.67 300.048M1069.86 284.3L1081.17 280.351M1069.86 284.3L1044.25 283.808M1069.86 284.3L1095.8 284.807M1081.17 280.351L1091.34 276.818M1081.17 280.351L1056.85 279.906M1081.17 280.351L1105.81 280.812M1091.34 276.818L1114.81 277.217M1091.34 276.818L1100.27 264.742M1091.34 276.818L1068.18 276.403M1114.81 277.217L1105.81 280.812M1114.81 277.217L1122.93 273.975M1186.9 278.462L1211.53 278.892M1186.9 278.462L1191.64 275.097M1186.9 278.462L1181.65 282.195M1211.53 278.892L1236.48 279.322M1211.53 278.892L1215.08 275.496M1211.53 278.892L1207.61 282.671M1236.48 279.322L1233.89 283.163M1236.48 279.322L1238.81 275.88M1287.31 280.213L1313.22 280.659M1287.31 280.213L1287.52 284.131M1287.31 280.213L1287.13 276.679M1313.22 280.659L1339.46 281.12M1313.22 280.659L1314.89 284.638M1313.22 280.659L1311.72 277.079M1339.46 281.12L1366.04 281.58M1339.46 281.12L1336.6 277.494M1339.46 281.12L1342.63 285.145M1366.04 281.58L1392.95 282.041M1366.04 281.58L1370.74 285.667M1366.04 281.58L1361.82 277.908M1392.95 282.041L1408.28 282.303M1392.95 282.041L1387.32 278.323M1392.95 282.041L1399.24 286.19M1285.73 251.544L1270.72 250.76L1256.69 249.393L1242.98 248.671M1285.73 251.544L1285.79 252.896L1285.88 254.34L1285.96 255.877L1286.05 257.521L1286.16 259.287L1286.25 261.208L1286.37 263.267M1285.73 251.544L1285.66 250.284M1291.7 359.138L1347.11 361.181M1289.13 312.907L1288.72 305.502M1289.13 312.907L1327.19 313.875M1288.72 305.502L1324.03 306.332M1287.77 288.525L1287.52 284.131M1287.77 288.525L1316.78 289.093M1287.52 284.131L1314.89 284.638M1287.13 276.679L1286.93 273.484M1287.13 276.679L1311.72 277.079M1286.93 273.484L1286.78 270.58M1286.93 273.484L1310.35 273.852M1286.78 270.58L1286.63 267.922M1286.78 270.58L1309.11 270.918M1286.63 267.922L1307.99 268.229M1286.37 263.267L1306 263.528M1285.66 250.284L1285.58 249.086M1285.66 250.284L1300.24 249.823L1314.04 248.794L1327.78 248.364M1285.58 249.086L1285.52 247.964M1285.58 249.086L1313.59 248.225M1285.52 247.964L1285 237.01M1285.52 247.964L1299.52 248.103M1285 237.01L1283.03 194.913M1285 237.01L1298.47 234.582M1283.03 194.913L1281.71 166.812M1283.03 194.913L1296.11 193.146M1281.71 166.812L1280.99 151.632M1281.71 166.812L1294.44 165.644M1280.99 151.632L1293.43 151.341M1408.29 258.965L1393.44 258.78M1393.44 258.78L1375.15 258.565M1393.44 258.78L1397.64 260.655M1375.15 258.565L1357.02 258.35M1375.15 258.565L1378.64 260.424M1357.02 258.35L1339.05 258.15M1357.02 258.35L1359.8 260.194M1339.05 258.15L1321.22 257.935M1339.05 258.15L1341.14 259.963M1321.22 257.935L1303.95 258.627L1286.2 260.255L1267.85 260.025L1250.3 258.857M1321.22 257.935L1322.64 259.733M1250.3 258.857L1232.61 258.642M1232.61 258.642L1216.43 258.442M1347.11 361.181L1404.06 363.27M1327.19 313.875L1324.03 306.332M1327.19 313.875L1365.99 314.859M1324.03 306.332L1359.95 307.177M1316.78 289.093L1314.89 284.638M1316.78 289.093L1346.18 289.662M1314.89 284.638L1342.63 285.145M1311.72 277.079L1310.35 273.852M1311.72 277.079L1336.6 277.494M1310.35 273.852L1309.11 270.918M1310.35 273.852L1334.04 274.221M1309.11 270.918L1307.99 268.229M1309.11 270.918L1331.7 271.256M1307.99 268.229L1329.57 268.537M1306 263.528L1305.13 261.438M1306 263.528L1325.82 263.789M1305.13 261.438L1304.31 259.518L1302.87 256.061L1302.22 254.509L1301.59 253.065L1301.03 251.698L1300.49 250.422L1299.99 249.224L1299.52 248.103M1305.13 261.438L1324.17 261.684M1299.52 248.103L1298.47 234.582M1298.47 234.582L1296.11 193.146M1298.47 234.582L1312.04 232.739M1296.11 193.146L1294.44 165.644M1296.11 193.146L1309.31 191.978M1294.44 165.644L1293.43 151.341M1294.44 165.644L1307.29 165.014M1293.43 151.341L1305.97 151.51M827.986 299.833L851.516 295.193M851.516 295.193L877.536 290.046M851.516 295.193L823.872 294.532M877.536 290.046L900.611 285.483M877.536 290.046L904.102 290.63M900.611 285.483L925.811 286.005M945.166 281.888L969.456 282.349M945.166 281.888L925.811 286.005M969.456 282.349L994.063 282.84M969.456 282.349L951.36 286.528M1009.09 279.045L1022.65 275.619M1009.09 279.045L1032.82 279.476M1009.09 279.045L994.063 282.84M1022.65 275.619L1045.28 276.019M1022.65 275.619L1033.17 205.56M1408.28 276.172L1406.77 275.358M1406.77 275.358L1382.23 274.974M1406.77 275.358L1408.29 275.389M1406.77 275.358L1400.97 272.285M1382.23 274.974L1377.62 271.932M1382.23 274.974L1387.32 278.323M1382.23 274.974L1357.99 274.59M1377.62 271.932L1354.53 271.594M1377.62 271.932L1400.97 272.285M1377.62 271.932L1373.41 269.166M1354.53 271.594L1331.7 271.256M1354.53 271.594L1357.99 274.59M1354.53 271.594L1351.37 268.859M1331.7 271.256L1329.57 268.537M1331.7 271.256L1334.04 274.221M1242.83 269.919L1221.21 269.597M1242.83 269.919L1240.92 272.762M1242.83 269.919L1244.59 267.323M1221.21 269.597L1199.73 266.923M1221.21 269.597L1223.88 267.031M1221.21 269.597L1218.3 272.408M1199.73 266.923L1202.84 252.865M1199.73 266.923L1195.92 272.055M1181.68 228.867L1187.74 235.735L1193.01 241.465M1408.29 278.677L1387.32 278.323M1387.32 278.323L1361.82 277.908M1357.99 274.59L1334.04 274.221M1357.99 274.59L1361.82 277.908M1334.04 274.221L1336.6 277.494M1240.92 272.762L1218.3 272.408M1240.92 272.762L1238.81 275.88M1218.3 272.408L1195.92 272.055M1218.3 272.408L1215.08 275.496M1195.92 272.055L1191.64 275.097M1305.97 151.51L1307.29 165.014M1305.97 151.51L1318.6 152.17M1307.29 165.014L1309.31 191.978M1307.29 165.014L1320.24 164.968M1309.31 191.978L1312.04 232.739M1309.31 191.978L1322.62 191.44M1312.04 232.739L1313.59 248.225M1312.04 232.739L1325.75 231.525M1122.93 273.975L1100.27 264.742M1140.21 180.916L1138.08 178.458M1119.9 157.425L1099.87 134.609M1119.9 157.425L1136.76 176.921M1100.27 264.742L1077.59 245.014M1068.18 276.403L1045.28 276.019M1068.18 276.403L1077.59 245.014M1068.18 276.403L1056.85 279.906M1045.28 276.019L1032.82 279.476M1045.28 276.019L1055.21 225.21M1331.99 252.02L1347.65 252.189M1331.99 252.02L1333.58 253.403M1331.99 252.02L1330.5 250.73L1329.09 249.516L1327.78 248.364M1347.65 252.189L1363.43 252.343M1347.65 252.189L1345.68 250.883M1347.65 252.189L1349.76 253.572M1363.43 252.343L1379.34 252.512M1363.43 252.343L1360.95 251.037M1363.43 252.343L1366.07 253.741M1379.34 252.512L1395.35 252.681M1379.34 252.512L1376.36 251.191M1379.34 252.512L1382.51 253.925M1395.35 252.681L1408.29 252.804M1395.35 252.681L1399.07 254.094M1395.35 252.681L1391.86 251.344M1032.82 279.476L1056.85 279.906M1032.82 279.476L1018.99 283.317M994.063 282.84L1018.99 283.317M951.36 286.528L925.811 286.005M925.811 286.005L904.102 290.63M823.872 294.532L813.549 296.361M823.872 294.532L809.678 294.194M1318.6 152.17L1320.24 164.968M1318.6 152.17L1331.33 153.307M1320.24 164.968L1322.62 191.44M1320.24 164.968L1333.29 165.537M1322.62 191.44L1325.75 231.525M1322.62 191.44L1336.04 191.579M1325.75 231.525L1327.78 248.364M1325.75 231.525L1339.56 230.987M1099.87 134.609L1080.14 112.716M1077.59 245.014L1055.21 225.21M1056.85 279.906L1044.25 283.808M1018.99 283.317L1044.25 283.808M1408.29 269.673L1395.7 269.489M1395.7 269.489L1373.41 269.166M1395.7 269.489L1400.97 272.285M1373.41 269.166L1351.37 268.859M1351.37 268.859L1329.57 268.537M1244.59 267.323L1223.88 267.031M1223.88 267.031L1216.95 262.345L1213.21 259.103M1213.21 259.103L1208.99 256.614M1213.21 259.103L1221.73 262.406L1228.59 262.498M1208.99 256.614L1205.99 254.97L1203.72 253.434M1208.99 256.614L1206.31 255.062L1205.08 254.064M1203.72 253.434L1202.84 252.865M1203.72 253.434L1205.08 254.064M1202.84 252.865L1201.52 250.684M1055.21 225.21L1033.17 205.56M1080.14 112.716L1060.71 92.0205M1339.56 230.987L1353.51 231.156M1339.56 230.987L1336.04 191.579M1339.56 230.987L1342.05 248.502M1353.51 231.156L1367.59 232.078M1353.51 231.156L1356.43 248.625M1353.51 231.156L1349.6 192.408M1367.59 232.078L1381.82 233.737M1367.59 232.078L1370.91 248.763M1367.59 232.078L1363.29 193.96M1381.82 233.737L1396.19 236.18M1381.82 233.737L1385.5 248.901M1381.82 233.737L1377.1 196.249M1396.19 236.18L1408.28 238.853M1396.19 236.18L1391.05 199.276M1396.19 236.18L1400.18 249.04M1331.33 153.307L1333.29 165.537M1331.33 153.307L1344.18 154.966M1333.29 165.537L1336.04 191.579M1333.29 165.537L1346.47 166.72M1336.04 191.579L1349.6 192.408M1342.05 248.502L1356.43 248.625M1342.05 248.502L1328.43 248.932L1285.76 252.22L1270.32 252.066L1242.37 249.255L1228.99 248.533M1342.05 248.502L1343.8 249.654M1060.71 92.0205L1041.55 72.8156M1383.37 162.863L1396.67 166.413M1383.37 162.863L1370.2 159.745M1383.37 162.863L1386.76 174.079M1396.67 166.413L1408.28 169.869M1396.67 166.413L1400.44 177.797M1041.55 72.8156L1022.68 55.3929M1400.44 177.797L1405.14 203.025M1400.44 177.797L1386.76 174.079M1400.44 177.797L1408.28 180.255M1405.14 203.025L1408.28 223.582M1405.14 203.025L1391.05 199.276M1405.14 203.025L1408.28 204.008M1408.28 254.202L1399.07 254.094M1399.07 254.094L1382.51 253.925M1399.07 254.094L1403.06 255.615M1391.86 251.344L1376.36 251.191M1391.86 251.344L1407.48 251.498M1391.86 251.344L1388.58 250.084M1376.36 251.191L1373.55 249.946M1376.36 251.191L1360.95 251.037M1373.55 249.946L1358.63 249.792M1373.55 249.946L1388.58 250.084M1373.55 249.946L1370.91 248.763M1358.63 249.792L1356.43 248.625M1358.63 249.792L1343.8 249.654M1358.63 249.792L1360.95 251.037M1356.43 248.625L1370.91 248.763M1349.6 192.408L1346.47 166.72M1349.6 192.408L1363.29 193.96M1346.47 166.72L1344.18 154.966M1346.47 166.72L1359.78 168.533M1344.18 154.966L1357.13 157.117M442.213 443.593L500.174 427.492M693.181 373.856L757.927 355.865M852.473 329.593L888.041 319.698M888.041 319.698L924.642 320.805M944.058 304.135L966.51 297.897M944.058 304.135L975.907 304.949M966.51 297.897L996.416 298.604M996.416 298.604L975.907 304.949M1057.67 300.048L1041.26 306.608M1153.39 302.306L1186.37 303.075M1153.39 302.306L1143.68 309.205M1186.37 303.075L1219.91 303.874M1186.37 303.075L1179.06 310.111M1219.91 303.874L1215.08 311.018M1359.95 307.177L1396.5 308.037M1359.95 307.177L1365.99 314.859M1396.5 308.037L1408.28 308.314M1396.5 308.037L1405.52 315.857M1408.28 251.498H1407.48M1407.48 251.498L1403.73 250.238M1388.58 250.084L1403.73 250.238M1388.58 250.084L1385.5 248.901M1370.91 248.763L1385.5 248.901M1363.29 193.96L1359.78 168.533M1363.29 193.96L1377.1 196.249M1359.78 168.533L1357.13 157.117M1359.78 168.533L1373.2 170.991M1357.13 157.117L1370.2 159.745M1403.73 250.238L1400.18 249.04M1403.73 250.238L1407.89 250.883L1408.28 251.759M1385.5 248.901L1400.18 249.04M1377.1 196.249L1373.2 170.991M1377.1 196.249L1391.05 199.276M1373.2 170.991L1370.2 159.745M1373.2 170.991L1386.76 174.079M1202.21 250.684L1210.89 250.776M1210.89 250.776L1225.63 250.929M1210.89 250.776L1213.05 249.562M1210.89 250.776L1208.58 252.082M1225.63 250.929L1239.79 251.744L1269.44 254.924L1285.91 255.108L1331.24 251.375L1345.68 250.883M1225.63 250.929L1223.79 252.235M1225.63 250.929L1227.36 249.7M1345.68 250.883L1360.95 251.037M1345.68 250.883L1343.8 249.654M1382.51 253.925L1385.89 255.431M1382.51 253.925L1366.07 253.741M1385.89 255.431L1403.06 255.615M1385.89 255.431L1368.89 255.247M1397.64 260.655L1408.28 260.778M1397.64 260.655L1378.64 260.424M1397.64 260.655L1402.18 262.667M15.134 443.593L19.9159 442.717M19.9159 442.717L30.4665 443.593M19.9159 442.717L2.26069 441.242M19.9159 442.717L208.035 408.041M185.963 443.593L318.399 415.385M318.399 415.385L376.693 419.272M546.11 366.881L623.912 350.303M546.11 366.881L593.717 369.139M623.912 350.303L667.435 352.116M775.916 327.058L816.995 317.563M1105.81 280.812L1095.8 284.807M1181.65 282.195L1207.61 282.671M1181.65 282.195L1175.81 286.359M1207.61 282.671L1233.89 283.163M1207.61 282.671L1203.22 286.896M1233.89 283.163L1231.02 287.434M1342.63 285.145L1370.74 285.667M1342.63 285.145L1346.18 289.662M1370.74 285.667L1399.24 286.19M1370.74 285.667L1376.01 290.246M1399.24 286.19L1408.29 286.343M1399.24 286.19L1406.28 290.83M1386.76 174.079L1391.05 199.276M1408.29 249.117L1400.18 249.04M1199.91 248.256L1201.28 248.272M1201.28 248.272L1215.08 248.41M1201.28 248.272L1200.34 248.717M1215.08 248.41L1228.18 249.117L1241.13 250.469L1255.01 251.897L1269.9 253.449L1285.84 253.618L1329.8 250.115L1343.8 249.654M1215.08 248.41L1213.05 249.562M1349.76 253.572L1352.01 255.062M1349.76 253.572L1333.58 253.403M1349.76 253.572L1366.07 253.741M1352.01 255.062L1368.89 255.247M1352.01 255.062L1335.28 254.878M1359.8 260.194L1378.64 260.424M1359.8 260.194L1362.8 262.176M1359.8 260.194L1341.14 259.963M1378.64 260.424L1382.39 262.422M1382.39 262.422L1386.47 264.588M1382.39 262.422L1402.18 262.667M1382.39 262.422L1362.8 262.176M1386.47 264.588L1407.09 264.849M1386.47 264.588L1366.05 264.311M1400.97 272.285L1408.29 272.393M65.7617 321.373L2.26069 319.468M65.7617 321.373L178.828 270.749M134.895 347.399L244.621 276.096M134.895 347.399L8.9554 362.487M540.084 346.846L609.444 334.048M540.084 346.846L454.798 362.564M715.391 245.89L748.53 282.057M1143.68 309.205L1179.06 310.111M1179.06 310.111L1215.08 311.018M1231.02 287.434L1203.22 286.896M1238.81 275.88L1215.08 275.496M1247.67 262.76L1228.59 262.498M1322.64 259.733L1324.17 261.684M1322.64 259.733L1341.14 259.963M1324.17 261.684L1325.82 263.789M1324.17 261.684L1343.4 261.93M1325.82 263.789L1345.83 264.05M1336.6 277.494L1361.82 277.908M1346.18 289.662L1376.01 290.246M1365.99 314.859L1405.52 315.857M1404.06 363.27L1408.28 368.648M1404.06 363.27L1408.29 363.424M1408.29 262.744L1402.18 262.667M1402.18 262.667L1407.09 264.849M1362.8 262.176L1343.4 261.93M1362.8 262.176L1366.05 264.311M1343.4 261.93L1345.83 264.05M1343.4 261.93L1341.14 259.963M7.98383 294.041L2.26069 294.348M1030.33 389.819L1060.46 368.387M1060.46 368.387L1116.01 370.691M1134.06 353.345L1185.23 355.22M1134.06 353.345L1116.01 370.691M1408.29 318.269L1405.52 315.857M1405.52 315.857L1408.28 315.934M1376.01 290.246L1406.28 290.83M1345.83 264.05L1366.05 264.311M1335.28 254.878L1333.58 253.403M1335.28 254.878L1319.3 255.477L1286.1 258.412L1268.42 258.197L1252.01 256.307L1236.07 255.308M1333.58 253.403L1318.1 253.972L1286.02 256.691L1268.96 256.507L1238.38 253.096L1223.79 252.235M1236.07 255.308L1219.74 255.124M1215.08 275.496L1191.64 275.097M1203.22 286.896L1175.81 286.359M853.93 381.461L902.979 361.872M593.717 369.139L667.435 352.116M43.2031 287.25L46.4366 287.035M43.2031 287.25L2.26069 289.8M43.2031 287.25L45.207 287.296M55.4692 281.565L58.6571 281.381M55.4692 281.565L2.26069 284.684M55.4692 281.565L58.1106 281.642M66.0653 276.664L69.2077 276.495M66.0653 276.664L2.26069 280.167M66.0653 276.664L68.7068 276.725M376.693 419.272L271.385 443.593M1406.28 290.83L1408.28 292.151M1406.28 290.83L1408.28 290.876M1219.74 255.124L1206.59 254.217L1205.27 253.956M1223.79 252.235L1208.58 252.082M1227.36 249.7L1213.05 249.562M1227.36 249.7L1228.99 248.533M1213.05 249.562L1201.02 249.439M1208.58 252.082L1203.45 252.02M1138.28 176.66L1138.08 178.458M1138.28 176.66L1136.76 176.921M1138.08 178.458L1136.76 176.921M1205.08 254.064L1204.76 253.449L1203.39 252.02L1203.1 251.728L1201.52 250.684M1205.08 254.064L1205.46 254.171M1201.52 250.684L1200.04 249.086M1201.52 250.684L1200.9 249.439L1200.04 249.086M1200.04 249.086L1199.28 248.256M1199.28 248.256L1196.88 246.09L1193.01 241.465M1199.28 248.256L1198.7 247.15L1197.7 246.105L1193.01 241.465M1366.07 253.741L1368.89 255.247M1407.09 264.849L1408.28 265.387M1407.09 264.849L1408.28 264.865M1403.06 255.615L1407.8 256.46L1408.29 257.628M65.5492 284.93L78.8475 277.325L81.4738 275.819L147.935 237.855" stroke="#808080" stroke-width="0.5" stroke-linecap="round" stroke-linejoin="round"/>
</svg>
