<svg width="137" height="17" viewBox="0 0 137 17" fill="none" xmlns="http://www.w3.org/2000/svg">
<path d="M15.1433 7.35215V14.2622C14.2416 15.1619 13.2388 15.8366 12.1349 16.2864C11.0466 16.7207 9.83392 16.9379 8.49686 16.9379C6.81775 16.9379 5.34076 16.5889 4.06588 15.8909C2.79101 15.1929 1.80376 14.208 1.10413 12.9361C0.404501 11.6487 0.0546875 10.1596 0.0546875 8.46893C0.0546875 6.82478 0.420048 5.36676 1.15077 4.09487C1.88149 2.80747 2.89984 1.80702 4.20581 1.09352C5.51178 0.364505 7.00432 0 8.68342 0C9.84947 0 10.9456 0.217152 11.9717 0.651456C13.0133 1.07025 13.9384 1.69069 14.7469 2.51276L12.9978 4.25773C12.4536 3.71485 11.7929 3.2883 11.0155 2.97809C10.2381 2.66787 9.45301 2.51276 8.6601 2.51276C7.5096 2.51276 6.49126 2.76094 5.60506 3.25728C4.71887 3.75363 4.02702 4.45162 3.5295 5.35125C3.03199 6.25088 2.78323 7.29011 2.78323 8.46893C2.78323 9.66327 3.01644 10.7103 3.48286 11.6099C3.94928 12.5095 4.61004 13.2075 5.46514 13.7039C6.33579 14.1847 7.34636 14.4251 8.49686 14.4251C10.1138 14.4251 11.4897 13.983 12.6247 13.0989V9.74858H8.05376V7.35215H15.1433Z" fill="#F3523F"/>
<path d="M30.9192 16.6121L29.4266 13.2385H20.658L19.1654 16.6121H16.227L23.5498 0.325728H26.5815L30.2312 8.46893L33.8809 16.6121H30.9192ZM25.0423 3.07115L21.7074 10.7723H28.3772L25.0423 3.07115Z" fill="#F3523F"/>
<path d="M50.9398 0.325728H53.3885V16.6121H50.6833V4.93246L45.0163 12.0985H44.4333L38.7896 4.95572V16.6121H36.0611V0.325728H38.5331L44.7365 8.21301L50.9398 0.325728Z" fill="#F3523F"/>
<path d="M60.1286 14.1226H69.5736V16.6121H57.4234V0.325728H69.4337V2.79196H60.1286V7.14275H69.0372V9.56245H60.1286V14.1226Z" fill="#F3523F"/>
<path d="M71.647 16.2054H82.9519V13.682H74.3685V0H71.647V16.2054Z" fill="#F3523F"/>
<path d="M101.137 6.5223C100.604 5.62944 98.5413 3.74306 97.5938 3.23474C96.6481 2.74128 95.5549 2.49537 94.3161 2.49537C93.0773 2.49537 92.01 2.74128 91.0643 3.23474C90.1186 3.74306 89.3867 4.44447 88.8706 5.33733C88.3378 6.23018 88.0705 7.26332 88.0705 8.43344C88.0705 9.60355 88.3378 10.6367 88.8706 11.5295C89.3867 12.4224 90.1186 13.1156 91.0643 13.609C92.01 14.1173 93.0939 14.3715 94.3161 14.3715C95.5549 14.3715 96.6481 14.1173 97.5938 13.609C98.5395 13.1156 99.2805 12.4224 99.8133 11.5295L103.135 4.02032C103.909 2.74128 105.003 1.74775 106.413 1.03974C107.823 0.34658 109.442 0 111.265 0C113.088 0 114.732 0.34658 116.143 1.03974C117.553 1.74775 118.646 2.74128 119.42 4.02032C120.194 5.29937 120.582 6.76985 120.582 8.43344C120.582 10.097 120.194 11.5675 119.42 12.8465C118.646 14.1256 117.553 15.1109 116.143 15.804C114.732 16.512 113.106 16.8669 111.265 16.8669C109.442 16.8669 107.823 16.512 106.413 15.804C105.003 15.1109 103.909 14.1256 103.135 12.8465L104.538 10.3825C105.054 11.2754 107.065 13.1156 108.013 13.609C108.959 14.1173 110.043 14.3715 111.265 14.3715C112.504 14.3715 113.597 14.1173 114.542 13.609C115.488 13.1156 116.229 12.4224 116.762 11.5295C117.278 10.6367 117.536 9.60355 117.536 8.43344C117.536 7.26332 117.278 6.23018 116.762 5.33733C116.229 4.44447 115.488 3.74306 114.542 3.23474C113.597 2.74128 112.504 2.49537 111.265 2.49537C110.026 2.49537 108.959 2.74128 108.013 3.23474C107.067 3.74306 106.335 4.44447 105.819 5.33733L102.472 12.8465C101.697 14.1256 100.604 15.1109 99.1939 15.804C97.7836 16.512 96.1577 16.8669 94.3161 16.8669C92.4745 16.8669 90.8744 16.512 89.4642 15.804C88.0539 15.1109 86.9608 14.1256 86.1865 12.8465C85.4123 11.5675 85.0251 10.097 85.0251 8.43344C85.0251 6.76985 85.4123 5.29937 86.1865 4.02032C86.9608 2.74128 88.0539 1.74775 89.4642 1.03974C90.8744 0.34658 92.493 0 94.3161 0C96.1393 0 97.7836 0.34658 99.1939 1.03974C100.604 1.74775 101.697 2.74128 102.472 4.02032L101.135 6.5223H101.137Z" fill="#F3523F"/>
<path d="M130.24 0H122.656V16.2054H125.378V11.2975H130.24C133.799 11.2975 136.125 9.05189 136.125 5.64875C136.125 2.24561 133.799 0 130.24 0ZM130.1 8.84353H125.355V2.47712H130.1C132.101 2.47712 133.426 3.72725 133.426 5.64875C133.426 7.5934 132.101 8.84353 130.1 8.84353Z" fill="#F3523F"/>
</svg>
